<?xml version="1.0" encoding="utf-8"?>
<!-- Generator: Adobe Illustrator 27.5.0, SVG Export Plug-In . SVG Version: 6.00 Build 0)  -->
<svg version="1.1" xmlns="http://www.w3.org/2000/svg" xmlns:xlink="http://www.w3.org/1999/xlink" x="0px" y="0px"
	 viewBox="0 0 500 500" style="enable-background:new 0 0 500 500;" xml:space="preserve">
<g id="BACKGROUND">
	<rect style="fill:#FAFAFF;" width="500" height="500"/>
	
		<radialGradient id="SVGID_1_" cx="253.6885" cy="92.318" r="105.4326" gradientTransform="matrix(-1 0 0 -0.066 499.28 405.6168)" gradientUnits="userSpaceOnUse">
		<stop  offset="0" style="stop-color:#9E9E9E"/>
		<stop  offset="0.9997" style="stop-color:#FFFFFF;stop-opacity:0"/>
	</radialGradient>
	<ellipse style="opacity:0.8;fill:url(#SVGID_1_);" cx="245.592" cy="399.597" rx="106.406" ry="9.546"/>
</g>
<g id="OBJECTS">
	<g>
		<g>
			<path style="fill:#5365C6;" d="M348.828,176.413v-19.721l-19.405,1.063c-0.602-4.239-1.575-8.277-2.876-12.1l16.411-10.901
				l-8.748-14.936l-17.734,7.417c-2.406-2.99-5.085-5.719-8.001-8.178l10.717-13.569l-14.514-8.05l-13.504,11.289
				c-3.522-1.416-7.208-2.558-11.031-3.412l4.52-13.369l-16.942-1.089l-8.242,12.625c-3.936,0.137-7.95,0.534-12.026,1.204
				l-0.935-11.253l-16.692,4.808l-3.083,12.065c-3.885,1.473-7.669,3.159-11.343,5.021l-5.195-8.072l-14.622,9.294l1.488,10.213
				c-3.283,2.471-6.442,5.085-9.445,7.84c-0.012,0.011-0.025,0.023-0.037,0.035l-0.008-0.004l-8.226-4.391l-11.364,12.417
				l5.306,7.484l0.631,0.894c1.379-1.624,2.753-3.255,4.213-4.801c5.875-6.372,12.529-12.03,19.732-16.9
				c7.254-4.788,15.073-8.774,23.329-11.605c8.228-2.892,16.905-4.609,25.676-4.904c8.759-0.292,17.653,0.933,25.932,4.067
				c8.274,3.087,15.902,8.113,21.808,14.769c5.933,6.633,10.035,14.826,12.094,23.439c2.08,8.63,2.239,17.604,1.065,26.317
				c-2.472,17.493-10.547,33.824-21.742,47.226c-5.608,6.719-12.015,12.758-19.031,17.975c-7.006,5.231-14.673,9.579-22.77,12.873
				c-8.09,3.301-16.621,5.556-25.31,6.494c-8.673,0.938-17.551,0.581-26.033-1.588c-8.464-2.168-16.469-6.209-23.039-11.931
				c-3.288-2.856-6.2-6.114-8.664-9.7c-0.041-0.067-0.076-0.135-0.117-0.203l-1.197,1.549l-8.704,11.252l8.822,11.6l11.234-8.893
				c2.594,2.352,5.43,4.485,8.476,6.403l-5.068,14.236l14.568,6.91l8.726-13.253c3.778,1.015,7.755,1.745,11.908,2.182l0.51,15.575
				h18.993l3.728-16.243c4.58-0.71,9.145-1.739,13.663-3.083l7.598,14.353l20.394-8.317l-3.469-16.617
				c4.449-2.553,8.757-5.4,12.889-8.509l14.593,9.69l17.25-15.968l-11.286-13.147c3.365-3.988,6.46-8.165,9.245-12.501l19.199,2.458
				l9.699-20.285l-17.2-6.548c1.495-4.559,2.641-9.174,3.4-13.815L348.828,176.413z"/>
			<path style="fill:#00142B;" d="M170.419,251.8c6.62,5.438,14.553,9.152,22.858,11.027c8.304,1.943,16.953,2.159,25.407,1.089
				c8.462-1.064,16.742-3.41,24.571-6.766c15.639-6.765,29.643-17.281,40.467-30.423c10.817-13.095,18.503-28.966,20.788-45.76
				c1.177-8.363,1.064-16.948-0.861-25.133c-1.907-8.175-5.726-15.899-11.277-22.181c-5.528-6.301-12.704-11.104-20.574-14.093
				c-7.878-2.994-16.38-4.323-24.861-4.204c-8.489,0.138-16.972,1.654-25.072,4.345c-8.13,2.622-15.868,6.421-23.112,10.985
				c-7.231,4.593-13.973,9.998-19.979,16.151c-1.521,1.522-2.949,3.124-4.385,4.719c-0.016,0.02-0.032,0.042-0.048,0.062l0.3,0.425
				c0.016-0.018,0.032-0.034,0.048-0.052l0.006,0.009c4.419-4.912,9.351-9.448,14.684-13.466c0.766-0.577,1.541-1.143,2.324-1.698
				l-0.001-0.001c0.015-0.01,0.029-0.021,0.044-0.032c9.251-6.573,19.723-11.658,30.868-14.497
				c39.424-10.041,73.643,11.992,71.832,52.737c-1.941,43.663-43.328,83.257-86.711,85.265c-11.926,0.552-22.413-1.922-30.974-6.609
				c-5.821-3.193-10.765-7.409-14.698-12.414l-0.671,0.869c0.072,0.111,0.14,0.228,0.213,0.337
				C164.136,245.942,167.108,249.091,170.419,251.8z"/>
		</g>
		<g>
			<path style="fill:#00142B;" d="M211.57,180.237l-21.13-23.464c0,0-13.763,17.089,2.433,46.785l27.659-25.049L211.57,180.237z
				 M209.235,185.037l-17.078-18.994c-0.385-0.418-0.639-0.936-0.727-1.497l-0.528-3.05l19.643,21.812l0.617-0.121L209.235,185.037z
				"/>
			<g>
				<path style="fill:#00142B;" d="M250.052,240.609c-3.16,2.301-6.441,4.404-9.833,6.287l-1.321-3.556
					c-1.057-2.962,0.484-6.243,3.446-7.3c2.962-1.057,6.243,0.484,7.3,3.446L250.052,240.609z"/>
				<path style="fill:#00142B;" d="M254.379,148.603c-13.004-20.964-39.022-14.006-39.022-14.006l20.018,20.821l-5.054,18.025
					l-41.07,37.194c2.246,6.254,20.095,3.523,28.562,13.312c5.296,6.111,10.735,15.646,15.833,26.239
					c1.795-0.815,3.579-1.685,5.318-2.62l-1.387-3.755c-1.321-3.7,0.606-7.774,4.294-9.095c3.7-1.321,7.774,0.605,9.095,4.294
					l0.264,0.727c1.178-0.892,2.345-1.817,3.479-2.753l-0.561-1.475c-4.999-13.973-3.38-29.685-1.806-44.891
					c1.575-15.261,3.061-29.663-2.753-39.044c-5.736-9.249-19.39-14.116-26.976-14.512c7.796-0.528,20.931,0.76,28.771,13.4
					c6.188,9.987,4.668,24.752,3.061,40.365c-1.553,14.975-3.149,30.445,1.695,43.966l0.286,0.738
					c0.958-0.826,1.894-1.663,2.819-2.532C250.096,206.178,267.284,169.424,254.379,148.603z M205.491,213.948
					c-5.58-1.154-11.16-3.253-11.16-3.253l7.311-6.753l11.931,3.271L205.491,213.948z M234.186,219.116
					c-0.187,0.198-0.418,0.341-0.661,0.429c-0.617,0.22-1.332,0.088-1.828-0.396l-13.829-13.532
					c-0.694-0.683-0.705-1.795-0.022-2.488c0.683-0.694,1.795-0.716,2.488-0.033l13.829,13.532
					C234.857,217.31,234.868,218.422,234.186,219.116z M238.733,214.7c-0.198,0.198-0.418,0.341-0.66,0.429
					c-0.617,0.22-1.332,0.088-1.828-0.396l-13.829-13.532c-0.694-0.683-0.705-1.795-0.022-2.488
					c0.672-0.694,1.795-0.705,2.488-0.033l13.818,13.532C239.394,212.895,239.416,214.007,238.733,214.7z M243.677,211.023
					c-0.198,0.198-0.418,0.341-0.661,0.429c-0.617,0.22-1.332,0.088-1.828-0.407l-13.83-13.521
					c-0.694-0.683-0.705-1.795-0.022-2.499c0.672-0.694,1.795-0.705,2.489-0.022l13.818,13.532
					C244.338,209.206,244.36,210.329,243.677,211.023z M251.511,166.083c0,0,0.126,2.495-0.282,7.184l-17.898-1.003l1.696-6.181
					H251.511z"/>
			</g>
		</g>
	</g>
</g>
<g id="TEXTS">
	<text transform="matrix(1 0 0 1 115.6694 341.487)"><tspan x="0" y="0" style="font-family:'Jost-SemiBold'; font-size:37.403px;">MECHANIC</tspan><tspan x="172.687" y="0" style="fill:#5365C6; font-family:'Jost-SemiBold'; font-size:37.403px;">NAME</tspan></text>
	<text transform="matrix(1 0 0 1 170.615 366.3864)" style="fill:#727087; font-family:'Jost-SemiBold'; font-size:14.2258px;">YOUR TAGLINE GOES HERE</text>
</g>
</svg>
