<?xml version="1.0" encoding="utf-8"?>
<!-- Generator: Adobe Illustrator 27.5.0, SVG Export Plug-In . SVG Version: 6.00 Build 0)  -->
<svg version="1.1" xmlns="http://www.w3.org/2000/svg" xmlns:xlink="http://www.w3.org/1999/xlink" x="0px" y="0px"
	 viewBox="0 0 500 500" style="enable-background:new 0 0 500 500;" xml:space="preserve">
<g id="BACKGROUND">
	<rect style="fill:#FFFFFF;" width="500" height="500"/>
</g>
<g id="OBJECTS">
	<g>
		<g style="opacity:0.24;">
			<path style="fill:#383838;" d="M369.725,415.517c-12.928-4.333-32.24-9.96-55.277-14.021l2.071-11.81l-6.573,2.723
				c-0.51,0.211-1.043,0.318-1.586,0.318c-1.418,0-2.719-0.723-3.478-1.934l-4.621-7.359l-1.177-0.147
				c-8.674-1.083-17.316-1.832-25.688-2.227l-2.213-0.104l-2.905,17.135c-0.337,1.987-2.045,3.43-4.06,3.43h-10.351
				c-2.016,0-3.724-1.442-4.061-3.43l-2.908-17.143l-2.211,0.104c-8.359,0.391-16.991,1.135-25.657,2.212l-1.177,0.146l-4.657,7.416
				c-0.76,1.21-2.061,1.932-3.479,1.932c-0.543,0-1.077-0.106-1.586-0.317l-6.736-2.791l2.077,11.847
				c-23.039,4.061-42.351,9.688-55.278,14.021l-13.494-42.119c2.983-1.199,9.042-3.535,17.443-6.285l2.361-0.772l-4.749-14.826
				c0.263-0.086,1.671-0.54,1.671-0.54l0.483-0.783c0.055-0.088,0.105-0.179,0.154-0.27c0,0,8.477-11.941,8.477-11.941
				l-14.797-1.989l-6.075-18.96l-8.392,1.917c-0.305,0.069-0.617,0.105-0.927,0.105c-1.666,0-3.156-0.999-3.796-2.545l-3.961-9.563
				c-0.772-1.862-0.093-3.992,1.615-5.064l8.83-5.546l-1.083-3.381c1.398-0.564,3.471-1.375,6.134-2.359l2.131-0.787l-0.581-2.196
				c-1.521-5.758-2.627-11.548-3.286-17.211l-0.217-1.862l-19.228-3.261c-1.987-0.337-3.43-2.045-3.43-4.061v-10.351
				c0-2.016,1.442-3.723,3.43-4.061l19.219-3.26l0.216-1.863c0.753-6.506,2.04-13.007,3.824-19.322l0.509-1.801l-16.503-10.363
				c-1.707-1.072-2.386-3.202-1.615-5.064l3.961-9.563c0.641-1.546,2.128-2.544,3.791-2.544c0.311,0,0.625,0.036,0.933,0.106
				l18.991,4.34l0.914-1.634c3.192-5.708,6.877-11.215,10.951-16.368l1.163-1.47l-11.296-15.911
				c-1.167-1.644-0.979-3.871,0.446-5.296l7.319-7.319c0.781-0.781,1.814-1.211,2.91-1.211c0.856,0,1.681,0.265,2.388,0.766
				l15.903,11.29l1.47-1.164c5.149-4.078,10.654-7.766,16.36-10.962l1.632-0.914l-4.342-19c-0.449-1.965,0.576-3.951,2.439-4.722
				l9.563-3.961c0.509-0.211,1.043-0.318,1.585-0.318c1.419,0,2.719,0.723,3.479,1.933l10.358,16.495l1.802-0.511
				c6.319-1.789,12.819-3.081,19.32-3.837l1.862-0.217l3.261-19.227c0.337-1.987,2.045-3.43,4.061-3.43h10.351
				c2.017,0,3.725,1.442,4.061,3.43l3.259,19.219l1.864,0.216c6.503,0.752,13.004,2.039,19.322,3.824l1.802,0.509l10.362-16.503
				c0.76-1.21,2.06-1.933,3.48-1.933c0.542,0,1.075,0.107,1.583,0.318l9.563,3.961c1.862,0.771,2.888,2.758,2.44,4.724
				l-4.341,18.991l1.634,0.914c5.71,3.193,11.217,6.877,16.368,10.951l1.47,1.163l15.912-11.296c0.705-0.501,1.53-0.766,2.386-0.766
				c1.096,0,2.129,0.43,2.91,1.212l7.319,7.319c1.426,1.426,1.613,3.653,0.446,5.297l-11.291,15.904l1.164,1.47
				c4.076,5.147,7.765,10.652,10.964,16.361l0.914,1.632l18.999-4.342c0.308-0.07,0.621-0.106,0.933-0.106
				c1.662,0,3.149,0.999,3.79,2.545l3.961,9.563c0.772,1.863,0.093,3.993-1.615,5.064l-16.495,10.358l0.511,1.803
				c1.79,6.318,3.081,12.818,3.838,19.319l0.217,1.862l19.228,3.261c1.987,0.337,3.43,2.045,3.43,4.061v10.351
				c0,2.017-1.442,3.725-3.43,4.062l-19.22,3.259l-0.216,1.864c-0.659,5.698-1.771,11.526-3.302,17.321l-0.58,2.196l2.131,0.787
				c2.627,0.971,4.674,1.774,6.059,2.33l-1.044,3.259l8.906,5.593c1.707,1.072,2.386,3.202,1.614,5.064l-3.961,9.563
				c-0.641,1.546-2.13,2.544-3.794,2.544l0,0c-0.31,0-0.625-0.035-0.933-0.104l-8.472-1.936l-6.104,19.056l-14.631,1.967
				l8.487,11.957l0.025,0.053c0.047,0.087,0.095,0.173,0.146,0.258l0.481,0.81c0,0,1.285,0.417,1.479,0.479l-4.75,14.826
				l2.361,0.772c8.4,2.75,14.46,5.086,17.443,6.285L369.725,415.517z"/>
			<path style="fill:#383838;" d="M264.134,112.979c0.805,0,1.462,0.554,1.597,1.348l2.945,17.37l0.627,3.7l3.728,0.431
				c6.371,0.737,12.74,1.998,18.93,3.747l3.603,1.018l1.991-3.171l9.367-14.918c0.3-0.477,0.809-0.762,1.363-0.762
				c0.212,0,0.422,0.043,0.628,0.128l9.562,3.961c0.744,0.308,1.138,1.072,0.96,1.856l-3.924,17.167l-0.834,3.65l3.268,1.828
				c5.594,3.128,10.99,6.739,16.038,10.73l2.94,2.325l3.056-2.17l14.385-10.212c0.353-0.251,0.705-0.304,0.937-0.304
				c0.248,0,0.726,0.062,1.143,0.48l7.319,7.32c0.569,0.569,0.641,1.424,0.174,2.081l-10.205,14.374l-2.171,3.058l2.328,2.94
				c3.994,5.044,7.608,10.437,10.742,16.031l1.829,3.264l3.647-0.833l17.176-3.925c0.125-0.029,0.251-0.043,0.374-0.043
				c0.648,0,1.229,0.393,1.481,1.002l3.961,9.563c0.308,0.744,0.047,1.562-0.635,1.99l-14.908,9.361l-3.173,1.992l1.021,3.605
				c1.754,6.19,3.019,12.558,3.76,18.927l0.434,3.724l3.697,0.627l17.379,2.948c0.794,0.135,1.348,0.791,1.348,1.596v10.351
				c0,0.806-0.554,1.462-1.348,1.597l-17.37,2.945l-3.699,0.627l-0.432,3.727c-0.646,5.584-1.735,11.294-3.236,16.97l-1.161,4.393
				l4.262,1.575c1.466,0.542,2.748,1.03,3.831,1.451l-0.922,2.879l3.287,2.064l7.262,4.56c0.682,0.428,0.943,1.247,0.635,1.991
				l-3.961,9.562c-0.252,0.608-0.835,1.001-1.485,1.001c-0.125,0-0.252-0.014-0.371-0.042l-6.238-1.426l-4.475-1.023l-1.401,4.372
				l-4.923,15.366l-8.964,1.205l-8.201,1.102l4.79,6.747l5.992,8.441c0.05,0.092,0.102,0.183,0.155,0.274l0.963,1.627l0.011,0.003
				l-3.232,10.088l-1.516,4.732l4.722,1.546c6.65,2.176,11.816,4.09,15.126,5.375l-12.01,37.486
				c-12.456-4.076-30.04-9.077-50.774-12.874l0.854-4.874l1.572-8.967l-8.411,3.484l-2.367,0.981
				c-0.205,0.085-0.416,0.128-0.629,0.128c-0.553,0-1.061-0.285-1.362-0.763l-3.99-6.354l-1.261-2.009l-2.353-0.294
				c-8.734-1.091-17.441-1.845-25.879-2.243l-4.425-0.209l-0.741,4.367l-2.535,14.951c-0.135,0.794-0.791,1.348-1.596,1.348h-10.351
				c-0.805,0-1.461-0.554-1.596-1.348l-2.537-14.96l-0.74-4.365l-4.422,0.206c-8.421,0.393-17.118,1.142-25.849,2.227l-2.355,0.293
				l-1.262,2.01l-4.026,6.411c-0.299,0.477-0.809,0.762-1.362,0.762c-0.213,0-0.425-0.043-0.629-0.128l-2.531-1.049l-8.41-3.484
				l1.572,8.967l0.861,4.911c-20.73,3.795-38.316,8.797-50.774,12.874l-12.009-37.486c3.31-1.285,8.476-3.199,15.126-5.375
				l4.722-1.546l-1.516-4.732l-3.231-10.086l0.166-0.054l0.966-1.553c0.054-0.087,0.106-0.176,0.159-0.27l5.997-8.447l4.79-6.748
				l-8.201-1.102l-9.131-1.227l-4.892-15.271l-1.401-4.372l-4.475,1.023l-6.15,1.406c-0.125,0.028-0.251,0.043-0.374,0.043
				c-0.651,0-1.234-0.393-1.486-1.002l-3.961-9.563c-0.308-0.743-0.047-1.562,0.635-1.99l7.188-4.514l3.287-2.064l-0.962-3.001
				c1.102-0.428,2.409-0.926,3.905-1.478l4.263-1.574l-1.161-4.394c-1.491-5.644-2.575-11.317-3.22-16.862l-0.434-3.725
				l-3.697-0.627l-17.378-2.947c-0.794-0.135-1.348-0.791-1.348-1.596v-10.351c0-0.805,0.555-1.461,1.348-1.596l17.37-2.946
				l3.699-0.628l0.432-3.727c0.738-6.374,1.999-12.743,3.747-18.93l1.018-3.603l-3.171-1.991l-14.918-9.367
				c-0.682-0.428-0.943-1.247-0.634-1.99l3.961-9.563c0.252-0.609,0.833-1.002,1.481-1.002c0.124,0,0.251,0.014,0.376,0.043
				l17.166,3.923l3.65,0.834l1.828-3.268c3.128-5.593,6.738-10.989,10.73-16.038l2.324-2.94l-2.17-3.056l-10.212-14.384
				c-0.466-0.656-0.394-1.512,0.176-2.081l7.319-7.319c0.417-0.417,0.894-0.479,1.142-0.479c0.233,0,0.586,0.053,0.94,0.304
				l14.375,10.205l3.058,2.171l2.94-2.328c5.045-3.995,10.438-7.609,16.03-10.741l3.264-1.829l-0.834-3.648l-3.925-17.176
				c-0.18-0.784,0.214-1.547,0.958-1.855l9.564-3.961c0.204-0.085,0.415-0.127,0.628-0.127c0.553,0,1.063,0.285,1.362,0.762
				l9.362,14.909l1.992,3.173l3.605-1.021c6.191-1.753,12.559-3.018,18.927-3.76l3.725-0.434l0.627-3.697l2.948-17.379
				c0.135-0.794,0.791-1.348,1.596-1.348H264.134 M154.272,351.091h0.005H154.272 M264.134,107.979h-10.351
				c-3.239,0-5.983,2.318-6.525,5.512l-2.948,17.379c-6.645,0.773-13.258,2.087-19.712,3.915l-9.362-14.909
				c-1.245-1.983-3.379-3.103-5.596-3.103c-0.85,0-1.713,0.165-2.542,0.508l-9.563,3.961c-2.993,1.239-4.642,4.431-3.919,7.589
				l3.925,17.176c-5.831,3.266-11.431,7.019-16.69,11.184l-14.375-10.205c-1.16-0.823-2.501-1.227-3.834-1.227
				c-1.703,0-3.393,0.659-4.678,1.943l-7.319,7.319c-2.292,2.291-2.593,5.871-0.717,8.512l10.211,14.383
				c-4.162,5.264-7.911,10.866-11.172,16.699l-17.166-3.923c-0.498-0.114-0.997-0.169-1.489-0.169c-2.629,0-5.056,1.567-6.101,4.088
				l-3.961,9.563c-1.24,2.993-0.149,6.416,2.595,8.138l14.918,9.367c-1.823,6.453-3.132,13.068-3.902,19.714l-17.37,2.946
				c-3.194,0.542-5.512,3.286-5.512,6.525v10.351c0,3.239,2.318,5.983,5.512,6.525l17.379,2.947
				c0.688,5.911,1.828,11.79,3.353,17.561c-5.386,1.989-8.352,3.271-8.352,3.271l1.194,3.728l-7.188,4.514
				c-2.744,1.724-3.835,5.146-2.595,8.139l3.96,9.561c1.044,2.522,3.477,4.089,6.106,4.089c0.491,0,0.988-0.055,1.484-0.168
				l6.154-1.407l5.856,18.28l12.263,1.648l-6.119,8.619c-0.08,0.113-0.133,0.235-0.205,0.351c-1.088,0.352-2.152,0.7-3.165,1.038
				l4.749,14.822c-12.478,4.084-19.75,7.228-19.75,7.228l14.973,46.736c13.213-4.539,34.307-10.855,59.775-15.168l0.003,0l0-0.001
				c0,0,0,0,0,0l-1.724-9.831l2.531,1.049c0.83,0.344,1.693,0.508,2.543,0.508c2.217,0,4.351-1.119,5.596-3.103l4.025-6.41
				c8.186-1.018,16.704-1.786,25.465-2.195l2.538,14.96c0.542,3.193,3.286,5.512,6.525,5.512h10.351
				c3.239,0,5.983-2.318,6.525-5.512l2.536-14.951c8.773,0.414,17.301,1.187,25.495,2.21l3.99,6.354
				c1.245,1.983,3.378,3.104,5.596,3.104c0.85,0,1.713-0.165,2.543-0.509l2.367-0.98l-1.717,9.794c0,0,0,0,0,0l0,0.001l0.003,0
				c25.468,4.313,46.562,10.629,59.775,15.168l14.973-46.736c0,0-7.272-3.144-19.75-7.228l4.749-14.822
				c-0.946-0.316-1.937-0.64-2.949-0.968c-0.095-0.16-0.171-0.326-0.28-0.48l-6.093-8.583l12.096-1.626l5.887-18.375l6.238,1.426
				c0.497,0.113,0.995,0.167,1.485,0.167c2.631,0,5.059-1.566,6.104-4.087l3.961-9.563c1.24-2.992,0.149-6.415-2.595-8.139
				l-7.262-4.56l1.155-3.605c0,0-2.938-1.271-8.277-3.244c1.535-5.806,2.68-11.723,3.368-17.673l17.37-2.945
				c3.193-0.542,5.512-3.286,5.512-6.526v-10.351c0-3.239-2.318-5.983-5.512-6.525l-17.379-2.948
				c-0.773-6.645-2.088-13.259-3.916-19.712l14.908-9.361c2.744-1.722,3.836-5.145,2.596-8.139l-3.961-9.563
				c-1.044-2.521-3.472-4.088-6.1-4.088c-0.492,0-0.991,0.055-1.489,0.169l-17.176,3.925c-3.268-5.832-7.021-11.433-11.185-16.691
				l10.205-14.374c1.876-2.642,1.574-6.222-0.717-8.512l-7.318-7.319c-1.285-1.286-2.976-1.945-4.679-1.945
				c-1.333,0-2.674,0.404-3.833,1.227l-14.384,10.211c-5.263-4.162-10.865-7.91-16.698-11.172l3.924-17.166
				c0.721-3.158-0.928-6.35-3.92-7.589l-9.563-3.961c-0.829-0.344-1.691-0.508-2.541-0.508c-2.217,0-4.352,1.12-5.597,3.103
				l-9.367,14.918c-6.453-1.823-13.068-3.133-19.715-3.902l-2.945-17.37C270.118,110.296,267.374,107.979,264.134,107.979
				L264.134,107.979z"/>
		</g>
		<g>
			<g>
				<g>
					<path style="fill:#FFFFFF;" d="M197.365,397.533c-25.469,4.313-46.564,10.629-59.777,15.168l-14.973-46.736
						c0,0,26.77-11.587,65.853-19.179L197.365,397.533z"/>
					<g>
						<path style="fill:#383838;" d="M184.429,352.699l7.149,40.776c-20.731,3.795-38.315,8.797-50.774,12.874l-12.009-37.485
							C137.189,365.609,157.58,358.296,184.429,352.699 M188.468,346.786c-39.083,7.592-65.853,19.179-65.853,19.179l14.973,46.736
							c13.213-4.539,34.309-10.855,59.777-15.168L188.468,346.786L188.468,346.786z"/>
					</g>
				</g>
				<g>
					<polygon style="fill:#383838;" points="160.756,390.091 188.742,374.762 193.99,394.557 					"/>
					<path style="fill:#383838;" d="M187.143,378.488l3.471,13.093l-21.982-2.954L187.143,378.488 M190.34,371.036l-37.462,20.519
						l44.487,5.979L190.34,371.036L190.34,371.036z"/>
				</g>
			</g>
			<g>
				<g>
					<path style="fill:#FFFFFF;" d="M302.552,397.533c25.469,4.313,46.564,10.629,59.777,15.168l14.973-46.736
						c0,0-26.77-11.587-65.853-19.179L302.552,397.533z"/>
					<g>
						<path style="fill:#383838;" d="M315.489,352.699c26.807,5.589,47.227,12.911,55.634,16.167l-12.009,37.483
							c-12.458-4.077-30.046-9.079-50.774-12.874L315.489,352.699 M311.449,346.786l-8.897,50.747
							c25.469,4.313,46.564,10.629,59.777,15.168l14.973-46.736C377.303,365.965,350.533,354.378,311.449,346.786L311.449,346.786z"
							/>
					</g>
				</g>
				<g>
					<polygon style="fill:#383838;" points="311.176,374.762 339.162,390.091 305.927,394.557 					"/>
					<path style="fill:#383838;" d="M312.774,378.488l18.511,10.139l-21.983,2.954L312.774,378.488 M309.577,371.036l-7.025,26.498
						l44.487-5.979L309.577,371.036L309.577,371.036z"/>
				</g>
			</g>
			<g>
				<path style="fill:#FFFFFF;" d="M392.092,240.723l-19.242-3.264c-0.797-7.903-2.347-15.582-4.563-22.974l16.508-10.366
					c1.701-1.068,2.384-3.208,1.615-5.064l-3.961-9.563c-0.769-1.856-2.764-2.887-4.723-2.439l-19.014,4.345
					c-3.732-6.908-8.104-13.418-13.035-19.454l11.3-15.916c1.163-1.638,0.975-3.876-0.446-5.297l-7.319-7.319
					c-1.421-1.421-3.659-1.609-5.297-0.446l-15.923,11.305c-6.04-4.927-12.553-9.295-19.463-13.021l4.344-19.006
					c0.448-1.958-0.583-3.954-2.439-4.723l-9.563-3.961c-1.856-0.769-3.996-0.086-5.064,1.615l-10.371,16.515
					c-7.393-2.211-15.073-3.755-22.977-4.547l-3.263-19.234c-0.336-1.981-2.052-3.43-4.061-3.43h-10.351
					c-2.009,0-3.725,1.449-4.061,3.43l-3.264,19.242c-7.903,0.797-15.582,2.347-22.974,4.563l-10.366-16.508
					c-1.068-1.701-3.208-2.384-5.064-1.615l-9.563,3.961c-1.856,0.769-2.887,2.764-2.439,4.723l4.345,19.014
					c-6.908,3.732-13.418,8.104-19.454,13.035l-15.916-11.299c-1.638-1.163-3.876-0.975-5.297,0.446l-7.319,7.319
					c-1.421,1.42-1.609,3.659-0.446,5.297l11.305,15.923c-4.927,6.04-9.295,12.553-13.021,19.463l-19.006-4.344
					c-1.958-0.448-3.954,0.583-4.723,2.439l-3.961,9.563c-0.769,1.856-0.086,3.996,1.615,5.064l16.515,10.371
					c-2.211,7.393-3.755,15.073-4.546,22.977l-19.234,3.263c-1.981,0.336-3.43,2.052-3.43,4.061v10.351
					c0,2.009,1.449,3.725,3.43,4.061l19.242,3.264c0.797,7.903,2.347,15.582,4.563,22.974l-16.508,10.366
					c-1.701,1.068-2.384,3.208-1.615,5.064l3.961,9.563c0.769,1.856,2.764,2.887,4.723,2.439l19.014-4.345
					c3.732,6.908,8.104,13.418,13.035,19.454l-11.3,15.916c-1.163,1.638-0.975,3.876,0.446,5.297l7.319,7.319
					c1.421,1.421,3.659,1.609,5.297,0.446l15.923-11.305c6.04,4.927,12.553,9.295,19.463,13.022l-4.344,19.006
					c-0.448,1.958,0.583,3.954,2.439,4.723l9.563,3.961c1.856,0.769,3.996,0.086,5.064-1.615l10.371-16.515
					c7.393,2.211,15.073,3.755,22.977,4.547l3.263,19.234c0.336,1.981,2.052,3.43,4.061,3.43h10.351c2.009,0,3.725-1.449,4.061-3.43
					l3.264-19.242c7.903-0.797,15.582-2.347,22.974-4.563l10.366,16.508c1.068,1.701,3.208,2.384,5.064,1.615l9.563-3.961
					c1.856-0.769,2.887-2.764,2.439-4.723l-4.345-19.014c6.908-3.732,13.418-8.104,19.454-13.035l15.916,11.3
					c1.638,1.163,3.876,0.974,5.297-0.446l7.319-7.319c1.421-1.421,1.609-3.659,0.446-5.297l-11.305-15.923
					c4.927-6.04,9.295-12.553,13.022-19.463l19.006,4.344c1.958,0.448,3.954-0.583,4.723-2.439l3.961-9.563
					c0.769-1.856,0.086-3.996-1.615-5.064l-16.515-10.371c2.211-7.393,3.755-15.073,4.546-22.977l19.234-3.263
					c1.981-0.336,3.43-2.052,3.43-4.061v-10.351C395.522,242.774,394.072,241.059,392.092,240.723z"/>
				<path style="fill:none;stroke:#383838;stroke-width:5;stroke-linecap:square;stroke-linejoin:round;stroke-miterlimit:10;" d="
					M392.092,240.723l-19.242-3.264c-0.797-7.903-2.347-15.582-4.563-22.974l16.508-10.366c1.701-1.068,2.384-3.208,1.615-5.064
					l-3.961-9.563c-0.769-1.856-2.764-2.887-4.723-2.439l-19.014,4.345c-3.732-6.908-8.104-13.418-13.035-19.454l11.3-15.916
					c1.163-1.638,0.975-3.876-0.446-5.297l-7.319-7.319c-1.421-1.421-3.659-1.609-5.297-0.446l-15.923,11.305
					c-6.04-4.927-12.553-9.295-19.463-13.021l4.344-19.006c0.448-1.958-0.583-3.954-2.439-4.723l-9.563-3.961
					c-1.856-0.769-3.996-0.086-5.064,1.615l-10.371,16.515c-7.393-2.211-15.073-3.755-22.977-4.547l-3.263-19.234
					c-0.336-1.981-2.052-3.43-4.061-3.43h-10.351c-2.009,0-3.725,1.449-4.061,3.43l-3.264,19.242
					c-7.903,0.797-15.582,2.347-22.974,4.563l-10.366-16.508c-1.068-1.701-3.208-2.384-5.064-1.615l-9.563,3.961
					c-1.856,0.769-2.887,2.764-2.439,4.723l4.345,19.014c-6.908,3.732-13.418,8.104-19.454,13.035l-15.916-11.299
					c-1.638-1.163-3.876-0.975-5.297,0.446l-7.319,7.319c-1.421,1.42-1.609,3.659-0.446,5.297l11.305,15.923
					c-4.927,6.04-9.295,12.553-13.021,19.463l-19.006-4.344c-1.958-0.448-3.954,0.583-4.723,2.439l-3.961,9.563
					c-0.769,1.856-0.086,3.996,1.615,5.064l16.515,10.371c-2.211,7.393-3.755,15.073-4.546,22.977l-19.234,3.263
					c-1.981,0.336-3.43,2.052-3.43,4.061v10.351c0,2.009,1.449,3.725,3.43,4.061l19.242,3.264
					c0.797,7.903,2.347,15.582,4.563,22.974l-16.508,10.366c-1.701,1.068-2.384,3.208-1.615,5.064l3.961,9.563
					c0.769,1.856,2.764,2.887,4.723,2.439l19.014-4.345c3.732,6.908,8.104,13.418,13.035,19.454l-11.3,15.916
					c-1.163,1.638-0.975,3.876,0.446,5.297l7.319,7.319c1.421,1.421,3.659,1.609,5.297,0.446l15.923-11.305
					c6.04,4.927,12.553,9.295,19.463,13.022l-4.344,19.006c-0.448,1.958,0.583,3.954,2.439,4.723l9.563,3.961
					c1.856,0.769,3.996,0.086,5.064-1.615l10.371-16.515c7.393,2.211,15.073,3.755,22.977,4.547l3.263,19.234
					c0.336,1.981,2.052,3.43,4.061,3.43h10.351c2.009,0,3.725-1.449,4.061-3.43l3.264-19.242c7.903-0.797,15.582-2.347,22.974-4.563
					l10.366,16.508c1.068,1.701,3.208,2.384,5.064,1.615l9.563-3.961c1.856-0.769,2.887-2.764,2.439-4.723l-4.345-19.014
					c6.908-3.732,13.418-8.104,19.454-13.035l15.916,11.3c1.638,1.163,3.876,0.974,5.297-0.446l7.319-7.319
					c1.421-1.421,1.609-3.659,0.446-5.297l-11.305-15.923c4.927-6.04,9.295-12.553,13.022-19.463l19.006,4.344
					c1.958,0.448,3.954-0.583,4.723-2.439l3.961-9.563c0.769-1.856,0.086-3.996-1.615-5.064l-16.515-10.371
					c2.211-7.393,3.755-15.073,4.546-22.977l19.234-3.263c1.981-0.336,3.43-2.052,3.43-4.061v-10.351
					C395.522,242.774,394.072,241.059,392.092,240.723z"/>
			</g>
			<g>
				<polygon style="fill:#383838;" points="142.72,330.794 170.706,315.465 175.954,335.26 				"/>
				<path style="fill:#383838;" d="M169.107,319.191l3.471,13.093l-21.982-2.954L169.107,319.191 M172.304,311.739l-37.462,20.519
					l44.487,5.979L172.304,311.739L172.304,311.739z"/>
			</g>
			<g>
				<polygon style="fill:#383838;" points="329.212,315.465 357.198,330.794 323.963,335.26 				"/>
				<path style="fill:#383838;" d="M330.81,319.191l18.511,10.139l-21.983,2.954L330.81,319.191 M327.613,311.739l-7.025,26.498
					l44.487-5.979L327.613,311.739L327.613,311.739z"/>
			</g>
			<g>
				
					<ellipse transform="matrix(0.7071 -0.7071 0.7071 0.7071 -103.5533 249.9999)" style="fill:#15A8EB;" cx="250" cy="250" rx="108.48" ry="108.48"/>
				<path style="fill:#0093CF;" d="M358.479,250c0-59.816-48.664-108.48-108.479-108.48v216.959
					C309.815,358.479,358.479,309.815,358.479,250z"/>
				
					<ellipse transform="matrix(0.7071 -0.7071 0.7071 0.7071 -103.5533 249.9999)" style="fill:none;stroke:#383838;stroke-width:5;stroke-linecap:square;stroke-linejoin:round;stroke-miterlimit:10;" cx="250" cy="250" rx="108.48" ry="108.48"/>
				<g>
					<circle style="fill:#383838;" cx="250" cy="162" r="3.555"/>
					<path style="fill:#383838;" d="M250,160.945c0.582,0,1.055,0.473,1.055,1.055s-0.473,1.055-1.055,1.055
						c-0.582,0-1.055-0.473-1.055-1.055S249.418,160.945,250,160.945 M250,155.945c-3.344,0-6.055,2.711-6.055,6.055
						s2.711,6.055,6.055,6.055s6.055-2.711,6.055-6.055S253.344,155.945,250,155.945L250,155.945z"/>
				</g>
				<g>
					<path style="fill:#383838;" d="M330.85,206.888c-1.96,0-3.555-1.595-3.555-3.555c0-1.96,1.595-3.555,3.555-3.555
						c1.961,0,3.556,1.595,3.556,3.555C334.405,205.293,332.81,206.888,330.85,206.888z"/>
					<path style="fill:#383838;" d="M330.85,202.278c0.582,0,1.055,0.473,1.055,1.055s-0.473,1.055-1.055,1.055
						c-0.582,0-1.055-0.473-1.055-1.055S330.268,202.278,330.85,202.278 M330.85,197.278c-3.344,0-6.055,2.711-6.055,6.055
						c0,3.344,2.711,6.055,6.055,6.055c3.344,0,6.055-2.711,6.055-6.055C336.905,199.989,334.194,197.278,330.85,197.278
						L330.85,197.278z"/>
				</g>
				<g>
					<path style="fill:#383838;" d="M193.012,321.349c-1.96,0-3.555-1.595-3.555-3.555c0-1.96,1.595-3.555,3.555-3.555
						c1.96,0,3.555,1.595,3.555,3.555C196.566,319.754,194.972,321.349,193.012,321.349z"/>
					<path style="fill:#383838;" d="M193.011,316.739c0.582,0,1.055,0.473,1.055,1.055c0,0.582-0.473,1.055-1.055,1.055
						s-1.055-0.473-1.055-1.055C191.957,317.212,192.43,316.739,193.011,316.739 M193.011,311.739c-3.344,0-6.055,2.711-6.055,6.055
						c0,3.344,2.711,6.055,6.055,6.055c3.344,0,6.055-2.711,6.055-6.055C199.066,314.45,196.355,311.739,193.011,311.739
						L193.011,311.739z"/>
				</g>
			</g>
			<g style="opacity:0.24;">
				<path style="fill:#383838;" d="M212.357,302.567c-0.975,0-1.851-0.756-1.993-1.721l-0.952-6.456l-1.818-0.284
					c-1.337-0.209-2.678-0.475-3.987-0.788l-1.786-0.429l-3.345,5.592c-0.36,0.602-1.03,0.976-1.748,0.976
					c-0.261,0-0.514-0.05-0.752-0.148l-5.944-2.463c-0.901-0.373-1.42-1.405-1.183-2.351l1.589-6.322l-1.564-0.961
					c-1.152-0.707-2.289-1.468-3.377-2.262l-1.487-1.083l-5.24,3.893c-0.433,0.321-0.889,0.389-1.195,0.389
					c-0.547,0-1.056-0.207-1.431-0.581l-4.55-4.55c-0.689-0.69-0.774-1.844-0.192-2.626l3.894-5.239l-1.084-1.487
					c-0.794-1.089-1.555-2.225-2.261-3.377l-0.96-1.564l-6.322,1.59c-0.15,0.038-0.311,0.058-0.472,0.058
					c-0.818,0-1.573-0.498-1.879-1.239l-2.463-5.946c-0.373-0.9-0.01-1.998,0.827-2.499l5.592-3.345l-0.428-1.786
					c-0.314-1.311-0.58-2.652-0.79-3.988l-0.285-1.817l-6.455-0.952c-0.965-0.142-1.721-1.018-1.721-1.993v-6.435
					c0-0.975,0.756-1.85,1.721-1.993l6.455-0.951l0.285-1.818c0.209-1.336,0.475-2.678,0.79-3.988l0.428-1.786l-5.592-3.346
					c-0.837-0.501-1.2-1.598-0.827-2.499l2.463-5.945c0.308-0.743,1.061-1.241,1.876-1.241c0.16,0,0.32,0.02,0.476,0.059
					l6.322,1.589l0.96-1.565c0.704-1.147,1.465-2.283,2.261-3.376l1.084-1.487l-3.894-5.24c-0.581-0.782-0.497-1.936,0.192-2.626
					l4.55-4.55c0.376-0.376,0.883-0.582,1.431-0.582c0.306,0,0.762,0.067,1.195,0.389l5.24,3.894l1.487-1.084
					c1.09-0.795,2.227-1.556,3.376-2.261l1.564-0.96l-1.589-6.322c-0.238-0.946,0.281-1.979,1.182-2.352l5.945-2.463
					c0.238-0.099,0.491-0.148,0.752-0.148c0.718,0,1.388,0.373,1.747,0.975l3.346,5.593l1.786-0.428
					c1.312-0.314,2.654-0.58,3.988-0.789l1.817-0.285l0.952-6.454c0.142-0.965,1.017-1.72,1.993-1.72h6.435
					c0.976,0,1.851,0.755,1.992,1.72l0.953,6.455l1.817,0.285c1.335,0.209,2.676,0.475,3.988,0.789l1.786,0.428l3.345-5.592
					c0.36-0.602,1.03-0.975,1.749-0.975c0.261,0,0.514,0.05,0.752,0.148l5.944,2.462c0.901,0.373,1.42,1.406,1.183,2.352
					l-1.589,6.322l1.564,0.96c1.149,0.705,2.285,1.466,3.377,2.261l1.487,1.083l5.239-3.893c0.433-0.322,0.889-0.389,1.194-0.389
					c0.548,0,1.056,0.206,1.431,0.581l4.551,4.55c0.689,0.689,0.773,1.843,0.192,2.626l-3.893,5.239l1.083,1.487
					c0.794,1.089,1.555,2.226,2.262,3.377l0.96,1.564l6.322-1.59c0.157-0.039,0.318-0.059,0.479-0.059
					c0.813,0,1.566,0.499,1.873,1.242l2.462,5.944c0.372,0.901,0.01,1.999-0.827,2.499l-5.592,3.346l0.429,1.786
					c0.314,1.31,0.579,2.651,0.788,3.986l0.284,1.819l6.456,0.952c0.964,0.143,1.72,1.018,1.72,1.993v6.435
					c0,0.976-0.756,1.851-1.72,1.993l-6.455,0.952l-0.285,1.817c-0.211,1.344-0.476,2.686-0.788,3.988l-0.429,1.785l5.592,3.346
					c0.837,0.5,1.2,1.599,0.827,2.5l-2.463,5.944c-0.308,0.743-1.063,1.241-1.878,1.241l0,0c-0.159,0-0.318-0.02-0.472-0.059
					l-6.324-1.59l-0.96,1.564c-0.707,1.151-1.468,2.288-2.262,3.377l-1.084,1.487l3.894,5.239c0.582,0.782,0.497,1.935-0.192,2.625
					l-4.55,4.551c-0.375,0.374-0.884,0.581-1.432,0.581c-0.307,0-0.763-0.067-1.195-0.39l-5.239-3.892l-1.486,1.083
					c-1.089,0.793-2.225,1.555-3.378,2.262l-1.564,0.961l1.59,6.321c0.237,0.946-0.282,1.979-1.183,2.353l-5.945,2.462
					c-0.242,0.101-0.494,0.15-0.754,0.15c-0.716,0-1.385-0.374-1.746-0.977l-3.345-5.593l-1.786,0.429
					c-1.31,0.313-2.651,0.579-3.987,0.788l-1.818,0.284l-0.952,6.457c-0.142,0.964-1.018,1.72-1.993,1.72H212.357z M198.036,253.985
					c-0.725,0-1.458,0.058-2.18,0.173c-3.633,0.574-6.825,2.531-8.988,5.508c-4.464,6.144-3.097,14.774,3.047,19.24
					c2.373,1.723,5.163,2.633,8.07,2.633c0.726,0,1.46-0.058,2.183-0.173c3.632-0.574,6.825-2.531,8.987-5.508
					c4.464-6.145,3.097-14.775-3.047-19.24C203.736,254.895,200.945,253.985,198.036,253.985z M233.114,253.985
					c-2.909,0-5.7,0.91-8.071,2.633c-6.145,4.465-7.512,13.096-3.048,19.24c2.163,2.977,5.355,4.934,8.989,5.509
					c0.72,0.114,1.454,0.172,2.179,0.172c2.909,0,5.7-0.91,8.072-2.633c6.145-4.466,7.512-13.097,3.047-19.24
					c-2.163-2.976-5.355-4.934-8.989-5.509C234.573,254.043,233.839,253.985,233.114,253.985z M215.575,236.456
					c-3.932,0-7.131,3.199-7.131,7.131s3.199,7.131,7.131,7.131s7.131-3.199,7.131-7.131S219.507,236.456,215.575,236.456z
					 M244.005,220.574c-1.444,0-2.88,0.229-4.268,0.68c-3.499,1.137-6.346,3.568-8.017,6.846c-1.671,3.278-1.964,7.01-0.827,10.51
					c1.137,3.499,3.568,6.347,6.847,8.017c1.934,0.986,4.092,1.507,6.24,1.507c1.444,0,2.88-0.229,4.269-0.68
					c3.499-1.137,6.347-3.568,8.017-6.847c1.67-3.278,1.964-7.01,0.827-10.509c-1.138-3.5-3.569-6.346-6.847-8.017
					C248.311,221.095,246.153,220.574,244.005,220.574z M187.165,220.579c-5.991,0-11.258,3.825-13.108,9.519
					c-1.137,3.499-0.844,7.231,0.827,10.51c1.67,3.278,4.517,5.709,8.017,6.846c1.388,0.451,2.824,0.68,4.268,0.68
					c2.148,0,4.306-0.521,6.241-1.506c3.278-1.67,5.71-4.517,6.847-8.017c1.137-3.499,0.844-7.231-0.827-10.51
					c-1.67-3.278-4.517-5.709-8.017-6.846C190.034,220.806,188.605,220.579,187.165,220.579z M215.575,199.933
					c-7.595,0-13.774,6.179-13.774,13.774c0,7.595,6.179,13.774,13.774,13.774c7.595,0,13.774-6.179,13.774-13.774
					C229.349,206.112,223.17,199.933,215.575,199.933z"/>
				<path style="fill:#383838;" d="M212.838,186.692h0.005H212.838 M218.373,187.109l0.622,4.219l0.537,3.64l3.635,0.57
					c1.269,0.199,2.545,0.452,3.792,0.751l3.572,0.857l1.885-3.152l2.187-3.657l5.17,2.142l-1.04,4.135l-0.895,3.56l3.129,1.92
					c1.093,0.671,2.174,1.395,3.213,2.152l2.973,2.166l2.953-2.194l3.426-2.546l3.957,3.958l-2.546,3.426l-2.194,2.953l2.167,2.973
					c0.755,1.036,1.479,2.117,2.151,3.213l1.92,3.129l3.56-0.895l4.135-1.04l2.141,5.17l-3.656,2.187l-3.152,1.886l0.857,3.572
					c0.299,1.245,0.551,2.519,0.749,3.789l0.568,3.638l3.643,0.537l4.219,0.622v5.596l-4.22,0.622l-3.64,0.537l-0.57,3.635
					c-0.201,1.279-0.453,2.554-0.75,3.792l-0.857,3.572l3.152,1.886l3.657,2.188l-2.142,5.169l-4.134-1.04l-3.561-0.896l-1.92,3.13
					c-0.672,1.095-1.396,2.176-2.151,3.212l-2.168,2.974l2.195,2.954l2.546,3.426l-3.957,3.957l-3.426-2.546l-2.953-2.194
					l-2.974,2.167c-1.035,0.754-2.116,1.478-3.213,2.152l-3.128,1.921l0.895,3.56l1.04,4.135l-5.17,2.141l-2.187-3.656l-1.886-3.152
					l-3.572,0.857c-1.245,0.299-2.52,0.551-3.789,0.749l-3.638,0.568l-0.537,3.642l-0.622,4.221h-5.596l-0.623-4.221l-0.537-3.642
					l-3.637-0.569c-1.271-0.199-2.546-0.451-3.79-0.749l-3.572-0.857l-1.885,3.152l-2.187,3.656l-5.169-2.142l1.039-4.135
					l0.895-3.559l-3.128-1.92c-1.096-0.673-2.177-1.397-3.213-2.152l-2.974-2.167l-2.953,2.194l-3.427,2.546l-3.957-3.957
					l2.546-3.426l2.195-2.954l-2.168-2.974c-0.755-1.036-1.479-2.116-2.151-3.212l-1.921-3.13l-3.561,0.896l-4.134,1.04l-2.142-5.17
					l3.656-2.187l3.152-1.885l-0.857-3.572c-0.299-1.246-0.552-2.522-0.751-3.792l-0.57-3.635l-3.64-0.537l-4.22-0.622v-5.596
					l4.219-0.622l3.641-0.537l0.57-3.635c0.199-1.27,0.452-2.546,0.751-3.792l0.857-3.572l-3.152-1.886l-3.657-2.188l2.142-5.17
					l4.136,1.04l3.561,0.895l1.92-3.13c0.669-1.091,1.393-2.171,2.151-3.211l2.168-2.974l-2.195-2.954l-2.546-3.426l3.958-3.957
					l3.426,2.546l2.954,2.195l2.974-2.168c1.037-0.756,2.117-1.479,3.21-2.15l3.13-1.92l-0.895-3.561l-1.04-4.135l5.17-2.142
					l2.187,3.656l1.885,3.152l3.571-0.856c1.248-0.299,2.524-0.552,3.793-0.751l3.635-0.57l0.537-3.64l0.622-4.219H218.373
					 M215.575,229.981c8.973,0,16.274-7.301,16.274-16.274c0-8.974-7.301-16.275-16.274-16.275c-8.974,0-16.274,7.301-16.274,16.275
					C199.301,222.68,206.601,229.981,215.575,229.981 M243.981,250.634c1.707,0,3.403-0.27,5.042-0.802
					c4.135-1.343,7.498-4.216,9.471-8.089c1.973-3.873,2.32-8.283,0.977-12.417c-1.344-4.134-4.216-7.498-8.09-9.472
					c-2.285-1.164-4.836-1.779-7.376-1.779c-1.706,0-3.402,0.27-5.041,0.802c-4.134,1.343-7.498,4.216-9.471,8.089
					c-1.974,3.873-2.322,8.283-0.978,12.418c1.344,4.135,4.216,7.498,8.089,9.471C238.889,250.018,241.439,250.634,243.981,250.634
					 M187.168,250.633c2.541,0,5.091-0.615,7.376-1.779c3.873-1.973,6.746-5.337,8.089-9.471c1.344-4.134,0.997-8.544-0.977-12.417
					c-1.974-3.873-5.337-6.746-9.472-8.089c-1.629-0.529-3.318-0.797-5.02-0.797c-7.077,0-13.3,4.519-15.486,11.246
					c-1.343,4.134-0.996,8.544,0.977,12.418c1.973,3.873,5.337,6.745,9.472,8.089C183.766,250.364,185.462,250.633,187.168,250.633
					 M215.575,253.219c5.311,0,9.631-4.321,9.631-9.631c0-5.311-4.32-9.631-9.631-9.631c-5.311,0-9.631,4.321-9.631,9.631
					C205.944,248.899,210.264,253.219,215.575,253.219 M233.163,284.039c3.44,0,6.74-1.075,9.542-3.111
					c7.26-5.276,8.874-15.474,3.6-22.731c-2.555-3.518-6.327-5.829-10.619-6.508c-0.851-0.135-1.716-0.203-2.571-0.203
					c-3.44,0-6.739,1.075-9.542,3.11c-7.259,5.275-8.874,15.472-3.6,22.732c2.555,3.518,6.327,5.829,10.619,6.508
					C231.441,283.971,232.307,284.039,233.163,284.039 M197.985,284.039c0.857,0,1.723-0.069,2.572-0.203
					c4.293-0.68,8.065-2.991,10.62-6.508c5.274-7.26,3.659-17.457-3.601-22.733c-2.801-2.034-6.1-3.109-9.54-3.109
					c-0.855,0-1.72,0.068-2.57,0.203c-4.293,0.68-8.065,2.991-10.62,6.508c-5.274,7.259-3.66,17.456,3.601,22.733
					C191.249,282.964,194.547,284.039,197.985,284.039 M234.819,189.977h0.005H234.819 M196.934,190.177h0.005H196.934
					 M177.914,201.375h0.005H177.914 M253.87,201.422h0.005H253.87 M164.627,219.001h0.005H164.627 M267.092,219.287h0.005H267.092
					 M218.792,182.109h-6.435c-2.222,0-4.143,1.658-4.466,3.855l-0.684,4.634c-1.401,0.22-2.805,0.498-4.184,0.828l-2.402-4.016
					c-0.832-1.391-2.34-2.193-3.893-2.193c-0.574,0-1.154,0.11-1.708,0.339l-5.945,2.463c-2.053,0.851-3.192,3.117-2.65,5.271
					l1.142,4.541c-1.206,0.74-2.395,1.536-3.542,2.372l-3.763-2.796c-0.797-0.592-1.743-0.882-2.686-0.883
					c-1.167,0-2.329,0.445-3.198,1.314l-4.551,4.551c-1.57,1.571-1.755,4.101-0.431,5.884l2.796,3.763
					c-0.836,1.147-1.633,2.336-2.372,3.542l-4.542-1.142c-0.361-0.091-0.725-0.134-1.085-0.134c-1.789,0-3.478,1.076-4.186,2.784
					l-2.463,5.945c-0.851,2.053-0.054,4.462,1.853,5.602l4.017,2.403c-0.331,1.378-0.608,2.782-0.828,4.184l-4.635,0.683
					c-2.198,0.325-3.855,2.245-3.855,4.466v6.435c0,2.222,1.658,4.142,3.856,4.466l4.634,0.684c0.22,1.401,0.497,2.806,0.828,4.184
					l-4.016,2.402c-1.907,1.141-2.704,3.549-1.854,5.602l2.462,5.944c0.707,1.71,2.398,2.784,4.19,2.784
					c0.359,0,0.722-0.043,1.082-0.133l4.542-1.143c0.738,1.203,1.534,2.393,2.372,3.542l-2.796,3.763
					c-1.324,1.782-1.139,4.313,0.432,5.885l4.551,4.551c0.869,0.868,2.031,1.312,3.198,1.312c0.943,0,1.889-0.29,2.686-0.882
					l3.763-2.796c1.147,0.836,2.336,1.632,3.542,2.372l-1.142,4.542c-0.542,2.155,0.598,4.421,2.65,5.271l5.944,2.463
					c0.554,0.229,1.135,0.339,1.709,0.339c1.552,0,3.061-0.8,3.894-2.193l2.402-4.016c1.38,0.331,2.785,0.608,4.184,0.827
					l0.684,4.635c0.324,2.198,2.244,3.856,4.466,3.856h6.435c2.222,0,4.142-1.658,4.466-3.855l0.684-4.636
					c1.4-0.219,2.804-0.496,4.184-0.827l2.402,4.016c0.833,1.393,2.34,2.195,3.891,2.195c0.575,0,1.156-0.11,1.711-0.341
					l5.944-2.462c2.052-0.85,3.192-3.115,2.651-5.272l-1.142-4.542c1.204-0.739,2.394-1.535,3.542-2.372l3.763,2.796
					c0.797,0.591,1.743,0.882,2.686,0.882c1.167,0,2.33-0.445,3.199-1.313l4.551-4.551c1.57-1.571,1.755-4.102,0.431-5.884
					l-2.796-3.763c0.838-1.149,1.634-2.339,2.372-3.542l4.543,1.143c0.36,0.09,0.723,0.134,1.082,0.134
					c1.788,0,3.48-1.076,4.187-2.784l2.464-5.946c0.849-2.053,0.052-4.461-1.854-5.601l-4.016-2.402
					c0.329-1.372,0.606-2.776,0.827-4.184l4.635-0.684c2.198-0.323,3.855-2.243,3.855-4.466v-6.435c0-2.221-1.657-4.141-3.854-4.466
					h-0.001l-4.635-0.683c-0.219-1.4-0.496-2.805-0.827-4.184l4.016-2.402c1.906-1.14,2.703-3.547,1.853-5.602l-2.462-5.944
					c-0.707-1.709-2.392-2.786-4.183-2.786c-0.361,0-0.726,0.044-1.089,0.135l-4.542,1.142c-0.74-1.206-1.536-2.395-2.372-3.542
					l2.796-3.763c1.324-1.783,1.14-4.313-0.432-5.884l-4.551-4.551c-0.869-0.868-2.031-1.313-3.198-1.313
					c-0.943,0-1.889,0.29-2.686,0.883l-3.763,2.796c-1.149-0.837-2.338-1.633-3.542-2.372l1.142-4.542
					c0.541-2.155-0.599-4.421-2.65-5.271l-5.946-2.463c-0.554-0.229-1.133-0.338-1.707-0.338c-1.552,0-3.061,0.799-3.894,2.192
					l-2.402,4.016c-1.378-0.331-2.782-0.608-4.184-0.828l-0.684-4.634C222.935,183.767,221.015,182.109,218.792,182.109
					L218.792,182.109z M215.575,224.981c-6.217,0-11.274-5.058-11.274-11.274c0-6.217,5.058-11.275,11.274-11.275
					c6.216,0,11.274,5.058,11.274,11.275C226.849,219.923,221.791,224.981,215.575,224.981L215.575,224.981z M243.981,245.634
					c-1.755,0-3.497-0.414-5.106-1.234c-2.684-1.367-4.673-3.697-5.604-6.561c-0.931-2.864-0.69-5.919,0.677-8.602
					c1.367-2.683,3.697-4.673,6.562-5.604c1.146-0.373,2.324-0.558,3.496-0.558c1.755,0,3.498,0.415,5.106,1.234
					c2.683,1.367,4.673,3.698,5.604,6.562c0.931,2.864,0.69,5.919-0.677,8.602c-1.367,2.684-3.697,4.673-6.561,5.604
					C246.33,245.449,245.153,245.634,243.981,245.634L243.981,245.634z M187.168,245.633c-1.172,0-2.349-0.185-3.495-0.557
					c-2.864-0.931-5.194-2.92-6.562-5.604c-1.367-2.684-1.607-5.738-0.677-8.603c1.546-4.759,5.977-7.791,10.73-7.791
					c1.151,0,2.323,0.178,3.476,0.553c2.864,0.931,5.194,2.921,6.562,5.604c1.367,2.683,1.607,5.738,0.677,8.602
					c-0.931,2.864-2.92,5.194-5.604,6.561C190.666,245.219,188.923,245.633,187.168,245.633L187.168,245.633z M215.575,248.219
					c-2.554,0-4.631-2.078-4.631-4.631c0-2.554,2.078-4.631,4.631-4.631c2.553,0,4.631,2.078,4.631,4.631
					C220.206,246.142,218.128,248.219,215.575,248.219L215.575,248.219z M233.163,279.039c-0.594,0-1.191-0.047-1.788-0.142
					c-2.974-0.471-5.587-2.072-7.357-4.509c-3.654-5.029-2.535-12.094,2.494-15.748c1.947-1.414,4.241-2.155,6.603-2.155
					c0.593,0,1.191,0.047,1.788,0.142c2.974,0.471,5.587,2.072,7.357,4.509c3.654,5.028,2.535,12.093-2.494,15.748
					C237.818,278.298,235.523,279.039,233.163,279.039L233.163,279.039z M197.985,279.039c-2.361,0-4.653-0.742-6.6-2.156
					c-5.029-3.655-6.148-10.72-2.494-15.748c1.77-2.437,4.383-4.038,7.357-4.509c0.598-0.095,1.195-0.142,1.788-0.142
					c2.361,0,4.655,0.741,6.602,2.155c5.029,3.654,6.148,10.719,2.494,15.748c-1.77,2.436-4.383,4.038-7.357,4.509
					C199.177,278.992,198.579,279.039,197.985,279.039L197.985,279.039z"/>
			</g>
			<g style="opacity:0.24;">
				<path style="fill:#383838;" d="M288.849,222.146c-0.153,0-0.309-0.017-0.462-0.051l-4.745-1.057
					c-1.08-0.241-1.836-1.328-1.685-2.424l0.752-5.461l-1.44-0.845c-0.992-0.582-1.942-1.248-2.824-1.979l-1.284-1.065l-4.876,2.563
					c-0.308,0.162-0.642,0.244-0.994,0.244c-0.754,0-1.467-0.385-1.86-1.004l-2.608-4.103c-0.594-0.934-0.358-2.238,0.523-2.906
					l4.389-3.327l-0.418-1.613c-0.287-1.109-0.487-2.254-0.595-3.402l-0.155-1.66l-5.262-1.635c-1.057-0.329-1.721-1.475-1.48-2.555
					l1.058-4.747c0.22-0.988,1.116-1.705,2.132-1.705c0.096,0,0.192,0.007,0.29,0.02l5.462,0.752l0.844-1.438
					c0.583-0.993,1.25-1.943,1.981-2.826l1.065-1.284l-2.564-4.876c-0.515-0.979-0.174-2.26,0.76-2.854l4.103-2.609
					c0.342-0.217,0.741-0.332,1.154-0.332c0.692,0,1.347,0.319,1.751,0.854l3.33,4.391l1.613-0.419
					c1.108-0.288,2.252-0.488,3.398-0.594l1.661-0.154l1.636-5.264c0.279-0.9,1.143-1.529,2.098-1.529
					c0.153,0,0.309,0.017,0.46,0.05l4.744,1.056c1.08,0.241,1.836,1.329,1.685,2.425l-0.752,5.459l1.438,0.845
					c0.993,0.582,1.943,1.249,2.826,1.98l1.283,1.064l4.876-2.563c0.309-0.162,0.643-0.244,0.995-0.244
					c0.752,0,1.465,0.384,1.858,1.003l2.61,4.105c0.594,0.934,0.359,2.238-0.523,2.906l-4.39,3.327l0.419,1.614
					c0.288,1.109,0.488,2.252,0.595,3.399l0.154,1.661l5.262,1.635c1.058,0.329,1.722,1.475,1.482,2.555l-1.057,4.747
					c-0.221,0.987-1.119,1.705-2.135,1.705c0,0,0,0-0.001,0c-0.095,0-0.191-0.006-0.289-0.02l-5.46-0.752l-0.845,1.439
					c-0.582,0.992-1.248,1.942-1.98,2.826l-1.064,1.283l2.563,4.874c0.516,0.98,0.174,2.26-0.76,2.854l-4.104,2.609
					c-0.342,0.217-0.74,0.333-1.153,0.333c-0.692,0-1.348-0.32-1.753-0.855l-3.327-4.39l-1.613,0.418
					c-1.111,0.288-2.255,0.488-3.4,0.595l-1.661,0.154l-1.636,5.263C290.664,221.518,289.803,222.146,288.849,222.146z
					 M292.221,183.621c-4.681,0-8.817,3.317-9.837,7.887c-1.206,5.425,2.224,10.82,7.647,12.027c0.72,0.16,1.457,0.242,2.189,0.242
					c4.681,0,8.817-3.317,9.838-7.887c1.206-5.425-2.224-10.82-7.647-12.028C293.692,183.702,292.955,183.621,292.221,183.621z"/>
				<path style="fill:#383838;" d="M295.886,167.525h0.005H295.886 M295.798,167.807l4.17,0.928l-0.484,3.514l-0.456,3.306
					l2.878,1.689c0.877,0.515,1.717,1.103,2.496,1.749l2.567,2.128l2.951-1.552l3.139-1.65l2.292,3.606l-2.826,2.142l-2.657,2.014
					l0.838,3.227c0.254,0.979,0.431,1.989,0.525,3.002l0.309,3.322l3.186,0.99l3.388,1.053l-0.928,4.17l-3.515-0.484l-3.306-0.455
					l-1.689,2.878c-0.514,0.876-1.102,1.716-1.749,2.496l-2.127,2.567l1.551,2.951l1.65,3.138l-3.605,2.293l-2.142-2.826
					l-2.014-2.657l-3.227,0.837c-0.982,0.255-1.992,0.431-3.004,0.525l-3.322,0.308l-0.99,3.186l-1.053,3.388l-4.17-0.929
					l0.484-3.514l0.456-3.307l-2.879-1.689c-0.876-0.514-1.715-1.102-2.493-1.747l-2.567-2.13l-2.952,1.552l-3.139,1.65
					l-2.292-3.605l2.826-2.143l2.655-2.013l-0.836-3.226c-0.254-0.98-0.431-1.992-0.526-3.008l-0.31-3.32l-3.184-0.989l-3.388-1.053
					l0.929-4.17l3.515,0.484l3.304,0.455l1.689-2.876c0.515-0.877,1.104-1.717,1.75-2.496l2.129-2.567l-1.553-2.952l-1.65-3.138
					l3.605-2.292l2.143,2.827l2.015,2.657l3.227-0.838c0.978-0.254,1.988-0.431,3.001-0.525l3.322-0.309l0.99-3.186L295.798,167.807
					 M289.488,205.975L289.488,205.975c0.898,0.2,1.817,0.301,2.733,0.301c5.841,0,11.005-4.139,12.279-9.845
					c1.506-6.769-2.776-13.502-9.542-15.009c-0.899-0.2-1.819-0.302-2.736-0.302c-5.842,0-11.005,4.14-12.277,9.846
					C278.438,197.736,282.719,204.469,289.488,205.975 M280.296,170.411h0.005H280.296 M313.322,177.782h0.005H313.322
					 M267.322,185.663h0.005H267.322 M295.596,162.752c-2.007,0-3.869,1.307-4.485,3.288l-1.141,3.67
					c-1.283,0.119-2.552,0.341-3.796,0.664l-2.32-3.06c-0.909-1.202-2.318-1.846-3.745-1.846c-0.861,0-1.727,0.234-2.495,0.722
					l-4.103,2.609c-2.039,1.296-2.756,3.987-1.632,6.127l1.788,3.4c-0.821,0.99-1.561,2.045-2.213,3.156l-3.807-0.524
					c-0.212-0.029-0.424-0.044-0.634-0.044c-2.153,0-4.094,1.514-4.572,3.661l-1.058,4.748c-0.524,2.358,0.872,4.767,3.179,5.485
					l3.67,1.141c0.12,1.284,0.342,2.553,0.664,3.796l-3.06,2.32c-1.926,1.459-2.42,4.2-1.123,6.24l2.608,4.103
					c0.882,1.388,2.41,2.162,3.97,2.162c0.733,0,1.474-0.171,2.157-0.531l3.4-1.788c0.989,0.821,2.044,1.56,3.156,2.212
					l-0.524,3.806c-0.331,2.394,1.259,4.681,3.618,5.207l4.747,1.057c0.335,0.074,0.671,0.11,1.003,0.11
					c2.007,0,3.868-1.31,4.482-3.289l1.141-3.67c1.283-0.119,2.553-0.341,3.797-0.664l2.319,3.061
					c0.91,1.202,2.32,1.846,3.746,1.846c0.861,0,1.728-0.235,2.495-0.723l4.103-2.609c2.04-1.297,2.757-3.988,1.632-6.127
					l-1.787-3.399c0.82-0.99,1.56-2.044,2.212-3.156l3.807,0.524c0.211,0.029,0.422,0.043,0.631,0.043
					c2.152,0,4.095-1.511,4.576-3.662l1.057-4.747c0.524-2.359-0.872-4.768-3.18-5.485l-3.669-1.14
					c-0.119-1.283-0.341-2.552-0.664-3.797l3.061-2.32c1.927-1.46,2.42-4.201,1.123-6.24l-2.609-4.104
					c-0.881-1.387-2.408-2.163-3.968-2.163c-0.733,0-1.474,0.171-2.158,0.531l-3.4,1.788c-0.989-0.82-2.044-1.56-3.156-2.212
					l0.524-3.806c0.331-2.394-1.258-4.682-3.618-5.208l-4.747-1.057C296.263,162.788,295.927,162.752,295.596,162.752
					L295.596,162.752z M290.574,201.095c-4.078-0.908-6.657-4.964-5.75-9.043c0.786-3.526,3.925-5.931,7.397-5.931
					c0.544,0,1.096,0.059,1.647,0.182c4.078,0.908,6.657,4.965,5.75,9.043c-0.787,3.526-3.93,5.931-7.398,5.931
					c-0.543,0-1.094-0.059-1.645-0.182C290.575,201.095,290.575,201.095,290.574,201.095L290.574,201.095z"/>
			</g>
			<g style="opacity:0.24;">
				<path style="fill:#383838;" d="M322.392,283.712l-5.535-0.349c-1.281-0.08-2.304-1.148-2.327-2.432l-0.12-6.295l-1.572-0.602
					c-1.353-0.52-2.669-1.163-3.912-1.915l-1.438-0.871l-5.047,3.759c-0.424,0.315-0.933,0.482-1.473,0.482
					c-0.726,0-1.408-0.303-1.875-0.832l-3.663-4.157c-0.848-0.963-0.815-2.44,0.074-3.364l4.364-4.535l-0.685-1.537
					c-0.589-1.321-1.061-2.707-1.407-4.119l-0.4-1.635l-6.23-0.912c-1.27-0.186-2.2-1.334-2.12-2.614l0.35-5.53
					c0.08-1.281,1.148-2.302,2.432-2.327l6.295-0.121l0.604-1.573c0.518-1.352,1.162-2.668,1.914-3.91l0.871-1.439l-3.759-5.047
					c-0.767-1.029-0.612-2.499,0.35-3.347l4.157-3.665c0.446-0.394,1.029-0.61,1.64-0.61c0.654,0,1.267,0.243,1.725,0.685
					l4.534,4.364l1.538-0.684c1.324-0.589,2.71-1.063,4.119-1.408l1.635-0.4l0.912-6.231c0.174-1.191,1.26-2.123,2.473-2.123
					l0.146,0.004l5.526,0.349c1.28,0.081,2.303,1.148,2.326,2.431l0.122,6.296l1.572,0.603c1.354,0.519,2.669,1.163,3.909,1.914
					l1.438,0.872l5.048-3.759c0.424-0.315,0.934-0.482,1.475-0.482c0.725,0,1.407,0.303,1.873,0.832l3.663,4.158
					c0.849,0.962,0.816,2.44-0.073,3.364l-4.365,4.535l0.685,1.538c0.589,1.322,1.063,2.708,1.407,4.119l0.4,1.635l6.23,0.912
					c1.271,0.186,2.201,1.334,2.12,2.614l-0.349,5.53c-0.081,1.279-1.149,2.303-2.432,2.328l-6.295,0.119l-0.602,1.572
					c-0.52,1.354-1.163,2.669-1.915,3.91l-0.871,1.439l3.759,5.049c0.766,1.028,0.611,2.499-0.351,3.347l-4.157,3.665
					c-0.445,0.392-1.028,0.608-1.639,0.608c-0.001,0,0,0-0.001,0c-0.653,0-1.267-0.243-1.726-0.685l-4.535-4.363l-1.537,0.685
					c-1.32,0.588-2.706,1.062-4.118,1.408l-1.635,0.4l-0.912,6.228c-0.178,1.211-1.235,2.125-2.46,2.125L322.392,283.712z
					 M321.665,239.792c-5.932,0-10.872,4.64-11.247,10.564c-0.392,6.205,4.338,11.571,10.542,11.963
					c0.241,0.016,0.482,0.022,0.722,0.022c5.93,0,10.867-4.641,11.241-10.564c0.392-6.204-4.338-11.57-10.543-11.962
					C322.141,239.799,321.901,239.792,321.665,239.792z"/>
				<path style="fill:#383838;" d="M320.84,220.913h0.005H320.84 M320.839,220.918l5.474,0.331l0.089,4.612l0.065,3.367l3.144,1.206
					c1.216,0.466,2.396,1.044,3.509,1.718l2.878,1.744l2.699-2.01l3.676-2.758l3.666,4.136l-3.198,3.323l-2.334,2.425l1.369,3.075
					c0.528,1.186,0.953,2.43,1.263,3.697l0.801,3.271l3.332,0.488l4.551,0.652l-0.331,5.515l-4.613,0.088l-3.367,0.064l-1.206,3.145
					c-0.466,1.215-1.044,2.396-1.719,3.51l-1.742,2.877l2.009,2.698l2.755,3.679l-4.134,3.663l-3.323-3.197l-2.426-2.333
					l-3.075,1.369c-1.185,0.528-2.428,0.952-3.696,1.263l-3.27,0.801l-0.488,3.331l-0.652,4.551l-5.515-0.333l-0.088-4.611
					l-0.064-3.367l-3.145-1.206c-1.215-0.466-2.396-1.044-3.512-1.719l-2.877-1.741l-2.698,2.009l-3.676,2.756l-3.664-4.135
					l3.197-3.322l2.334-2.426l-1.369-3.075c-0.528-1.185-0.953-2.428-1.263-3.696l-0.801-3.271l-3.332-0.488l-4.551-0.65
					l0.333-5.517l4.612-0.088l3.368-0.064l1.205-3.145c0.465-1.214,1.043-2.395,1.718-3.509l1.743-2.878l-2.01-2.699l-2.755-3.677
					l4.135-3.663l3.322,3.197l2.425,2.334l3.075-1.368c1.189-0.529,2.433-0.954,3.697-1.264l3.271-0.801l0.488-3.332
					L320.839,220.918 M321.682,264.841c7.245,0,13.279-5.669,13.736-12.907c0.478-7.58-5.299-14.136-12.882-14.615
					c-0.291-0.018-0.583-0.027-0.871-0.027c-7.247,0-13.284,5.669-13.742,12.907c-0.478,7.58,5.299,14.136,12.877,14.614
					C321.096,264.832,321.39,264.841,321.682,264.841 M320.814,215.916c-2.427,0-4.59,1.814-4.947,4.261l-0.668,4.565
					c-1.56,0.382-3.077,0.901-4.541,1.552l-3.322-3.197c-0.956-0.92-2.207-1.383-3.459-1.383c-1.178,0-2.356,0.41-3.293,1.235
					l-4.156,3.664c-1.932,1.702-2.24,4.651-0.702,6.716l2.754,3.698c-0.83,1.371-1.536,2.811-2.11,4.31l-4.612,0.088
					c-2.574,0.05-4.717,2.101-4.878,4.669l-0.35,5.531c-0.161,2.567,1.706,4.872,4.253,5.245l4.564,0.668
					c0.382,1.56,0.9,3.078,1.552,4.541l-3.197,3.322c-1.784,1.854-1.85,4.819-0.148,6.75l3.664,4.158
					c0.975,1.106,2.358,1.679,3.75,1.679c1.04,0,2.084-0.32,2.966-0.977l3.698-2.754c1.37,0.829,2.81,1.535,4.31,2.11l0.088,4.611
					c0.049,2.574,2.101,4.718,4.67,4.879l5.529,0.349c0.105,0.007,0.209,0.01,0.313,0.01c2.44,0,4.575-1.818,4.934-4.263
					l0.668-4.563c1.559-0.382,3.077-0.9,4.54-1.552l3.323,3.197c0.956,0.919,2.207,1.382,3.458,1.382
					c1.177,0,2.356-0.409,3.293-1.233l4.156-3.664c1.932-1.702,2.24-4.651,0.703-6.716l-2.754-3.699
					c0.829-1.369,1.535-2.81,2.11-4.31l4.613-0.088c2.571-0.051,4.714-2.102,4.877-4.67l0.349-5.529
					c0.163-2.569-1.705-4.874-4.253-5.246l-4.564-0.668c-0.382-1.56-0.9-3.078-1.552-4.541l3.198-3.323
					c1.784-1.854,1.849-4.819,0.147-6.751l-3.664-4.159c-0.975-1.105-2.357-1.678-3.748-1.678c-1.04,0-2.085,0.32-2.968,0.977
					l-3.698,2.754c-1.37-0.83-2.811-1.536-4.31-2.11l-0.089-4.612c-0.049-2.574-2.1-4.717-4.669-4.878l-5.531-0.349
					C321.012,215.919,320.912,215.916,320.814,215.916L320.814,215.916z M321.682,259.841c-0.187,0-0.375-0.006-0.565-0.018
					c-4.828-0.305-8.509-4.481-8.204-9.31c0.294-4.642,4.164-8.222,8.752-8.222c0.184,0,0.371,0.006,0.558,0.018
					c4.829,0.305,8.51,4.482,8.205,9.31C330.135,256.258,326.283,259.841,321.682,259.841L321.682,259.841z"/>
			</g>
			<g style="opacity:0.24;">
				<path style="fill:#383838;" d="M259.395,356.029l-6.012-0.379c-1.392-0.088-2.503-1.249-2.53-2.644l-0.131-6.854l-1.583-0.599
					c-1.561-0.59-3.072-1.33-4.492-2.199l-1.442-0.883l-5.496,4.092c-0.462,0.344-1.016,0.525-1.604,0.525
					c-0.787,0-1.528-0.33-2.035-0.905l-3.984-4.521c-0.922-1.046-0.887-2.653,0.08-3.658l4.752-4.938l-0.696-1.543
					c-0.684-1.517-1.228-3.108-1.617-4.731l-0.395-1.646l-6.783-0.993c-1.38-0.202-2.392-1.451-2.305-2.843l0.379-6.013
					c0.088-1.392,1.249-2.503,2.644-2.53l6.854-0.132l0.598-1.583c0.589-1.56,1.329-3.071,2.199-4.492l0.883-1.442l-4.092-5.496
					c-0.834-1.118-0.667-2.716,0.38-3.639l4.52-3.983c0.485-0.428,1.118-0.663,1.782-0.663c0.711,0,1.377,0.264,1.876,0.743
					l4.937,4.752l1.542-0.695c1.516-0.685,3.108-1.228,4.732-1.617l1.646-0.395l0.992-6.785c0.189-1.294,1.365-2.309,2.677-2.309
					c0.055,0,0.109,0.001,0.164,0.005l6.015,0.38c1.392,0.088,2.503,1.249,2.53,2.643l0.132,6.855l1.583,0.599
					c1.56,0.589,3.071,1.329,4.491,2.198l1.442,0.883l5.496-4.092c0.461-0.343,1.015-0.524,1.602-0.524
					c0.788,0,1.53,0.33,2.038,0.905l3.983,4.522c0.924,1.046,0.888,2.651-0.079,3.656L282.319,308l0.695,1.543
					c0.685,1.517,1.229,3.108,1.618,4.731l0.394,1.645l6.784,0.993c1.38,0.202,2.392,1.45,2.304,2.842l-0.379,6.014
					c-0.088,1.392-1.25,2.503-2.644,2.529l-6.855,0.132l-0.599,1.583c-0.59,1.563-1.33,3.073-2.199,4.491l-0.884,1.442l4.094,5.497
					c0.833,1.119,0.666,2.717-0.381,3.638l-4.521,3.984c-0.485,0.429-1.119,0.665-1.783,0.665l0,0c-0.711,0-1.377-0.265-1.876-0.744
					l-4.937-4.752l-1.542,0.695c-1.519,0.685-3.11,1.229-4.732,1.618l-1.646,0.395l-0.993,6.783
					c-0.192,1.316-1.342,2.309-2.675,2.309C259.509,356.034,259.452,356.033,259.395,356.029z M258.604,308.405
					c-2.945,0-5.788,1.076-8.005,3.03c-2.43,2.141-3.881,5.101-4.085,8.334c-0.204,3.233,0.863,6.353,3.006,8.782
					c2.141,2.43,5.101,3.881,8.334,4.085c0.259,0.017,0.515,0.024,0.77,0.024c6.383,0,11.697-4.992,12.099-11.364
					c0.421-6.674-4.666-12.446-11.34-12.867C259.119,308.414,258.861,308.405,258.604,308.405z"/>
				<path style="fill:#383838;" d="M257.675,282.532l0.006,5l6.014,0.38c0.084,0.005,0.189,0.114,0.19,0.194l0.099,5.164
					l0.065,3.385l3.167,1.197c1.413,0.534,2.782,1.204,4.069,1.992l2.884,1.766l2.713-2.02l4.141-3.083
					c0.01-0.007,0.04-0.03,0.108-0.03c0.018,0,0.113,0.003,0.162,0.058l3.987,4.524c0.053,0.06,0.049,0.208-0.009,0.268l-3.579,3.72
					l-2.346,2.438l1.391,3.084c0.62,1.374,1.113,2.816,1.465,4.286l0.789,3.292l3.349,0.49l5.11,0.748
					c0.082,0.012,0.176,0.128,0.17,0.212l-0.379,6.011c-0.005,0.085-0.112,0.188-0.197,0.189l-5.161,0.099l-3.385,0.065
					l-1.197,3.167c-0.535,1.416-1.205,2.784-1.992,4.068l-1.768,2.885l2.021,2.714l3.082,4.139c0.049,0.067,0.035,0.215-0.029,0.271
					l-4.519,3.983c-0.038,0.034-0.093,0.041-0.132,0.041c-0.028,0-0.099-0.004-0.141-0.045l-3.719-3.579l-2.438-2.346l-3.084,1.39
					c-1.375,0.62-2.818,1.113-4.288,1.466l-3.291,0.789l-0.49,3.348l-0.748,5.111c-0.012,0.084-0.127,0.169-0.212,0.169
					l-6.011-0.379c-0.083-0.005-0.188-0.114-0.189-0.197l-0.099-5.162l-0.065-3.384l-3.166-1.197
					c-1.414-0.535-2.784-1.205-4.071-1.993l-2.884-1.766l-2.713,2.02l-4.141,3.083c-0.01,0.008-0.04,0.03-0.109,0.03
					c-0.018,0-0.111-0.003-0.16-0.059l-3.983-4.519c-0.055-0.063-0.052-0.212,0.005-0.273l3.579-3.719l2.346-2.438l-1.391-3.085
					c-0.62-1.374-1.113-2.816-1.465-4.286l-0.789-3.291l-3.349-0.49l-5.108-0.748c-0.084-0.012-0.178-0.128-0.173-0.212l0.379-6.011
					c0.005-0.084,0.115-0.189,0.195-0.19l5.163-0.099l3.385-0.065l1.197-3.168c0.534-1.413,1.204-2.782,1.992-4.069l1.767-2.885
					l-2.02-2.713l-3.084-4.142c-0.049-0.065-0.033-0.213,0.029-0.267l4.52-3.984c0.038-0.034,0.098-0.039,0.13-0.039
					c0.029,0,0.101,0.004,0.142,0.044l3.719,3.579l2.438,2.347l3.085-1.392c1.373-0.62,2.815-1.112,4.286-1.465l3.292-0.789
					l0.49-3.35l0.747-5.109c0.012-0.081,0.131-0.172,0.203-0.172L257.675,282.532 M258.624,335.161
					c7.699,0,14.109-6.021,14.593-13.707c0.507-8.05-5.628-15.012-13.688-15.52c-0.31-0.019-0.618-0.029-0.926-0.029
					c-3.555,0-6.985,1.298-9.657,3.654c-2.931,2.583-4.681,6.153-4.928,10.053c-0.246,3.901,1.041,7.663,3.624,10.592
					c2.583,2.931,6.153,4.681,10.053,4.928h0.001C258.008,335.151,258.317,335.161,258.624,335.161 M257.675,282.532
					c-2.543,0-4.778,1.899-5.151,4.447l-0.747,5.109c-1.781,0.427-3.513,1.019-5.178,1.77l-3.719-3.579
					c-0.997-0.958-2.302-1.441-3.609-1.441c-1.229,0-2.459,0.427-3.435,1.287l-4.521,3.984c-2.015,1.776-2.336,4.854-0.732,7.007
					l3.083,4.14c-0.954,1.558-1.759,3.201-2.406,4.914l-5.163,0.099c-2.684,0.053-4.92,2.192-5.09,4.873l-0.379,6.013
					c-0.168,2.68,1.78,5.084,4.438,5.474l5.109,0.748c0.427,1.78,1.018,3.512,1.77,5.177l-3.579,3.719
					c-1.862,1.935-1.93,5.029-0.154,7.045l3.983,4.52c1.016,1.154,2.459,1.753,3.911,1.753c1.085,0,2.175-0.334,3.096-1.021
					l4.14-3.082c1.558,0.954,3.201,1.759,4.914,2.406l0.099,5.162c0.051,2.685,2.191,4.921,4.872,5.091l6.013,0.379
					c0.109,0.007,0.218,0.01,0.325,0.01c2.548,0,4.776-1.898,5.148-4.446l0.748-5.109c1.779-0.427,3.511-1.018,5.177-1.769
					l3.719,3.579c0.997,0.959,2.302,1.442,3.608,1.442c1.229,0,2.459-0.428,3.437-1.289l4.52-3.983
					c2.016-1.774,2.338-4.853,0.733-7.008l-3.083-4.14c0.954-1.557,1.759-3.2,2.406-4.914l5.161-0.099
					c2.685-0.051,4.922-2.19,5.092-4.872l0.379-6.013c0.17-2.681-1.779-5.085-4.436-5.474l-5.109-0.748
					c-0.427-1.78-1.018-3.512-1.769-5.177l3.579-3.72c1.863-1.936,1.931-5.03,0.154-7.043l-3.984-4.522
					c-1.017-1.153-2.46-1.752-3.913-1.752c-1.084,0-2.174,0.334-3.095,1.02l-4.14,3.082c-1.557-0.953-3.199-1.758-4.913-2.405
					l-0.099-5.164c-0.053-2.684-2.192-4.919-4.873-5.089l-6.015-0.38C257.889,282.535,257.782,282.532,257.675,282.532
					L257.675,282.532z M258.012,330.142c-2.566-0.162-4.916-1.313-6.616-3.243c-1.701-1.929-2.548-4.405-2.386-6.972
					c0.162-2.566,1.313-4.916,3.243-6.616c1.773-1.564,4.009-2.405,6.351-2.405c0.206,0,0.413,0.007,0.621,0.02
					c5.298,0.334,9.336,4.916,9.002,10.215c-0.321,5.094-4.576,9.021-9.603,9.021c-0.203,0-0.406-0.006-0.612-0.019H258.012
					L258.012,330.142z"/>
			</g>
			<g>
				<path style="fill:#F2CD13;" d="M267.834,233.378l-4.996-0.737c-0.885-0.13-1.562-0.832-1.695-1.716
					c-0.235-1.563-0.54-3.103-0.913-4.616c-0.214-0.867,0.144-1.771,0.911-2.229l4.329-2.59c0.857-0.513,1.209-1.576,0.827-2.499
					l-2.463-5.945c-0.382-0.923-1.383-1.426-2.352-1.182l-4.896,1.231c-0.866,0.218-1.758-0.169-2.22-0.933
					c-0.814-1.345-1.688-2.649-2.618-3.91c-0.531-0.719-0.547-1.693-0.014-2.411l3.014-4.056c0.596-0.802,0.514-1.919-0.193-2.626
					l-4.55-4.55c-0.706-0.706-1.824-0.788-2.626-0.192l-4.056,3.014c-0.718,0.533-1.692,0.517-2.411-0.014
					c-1.26-0.93-2.564-1.805-3.91-2.618c-0.764-0.462-1.15-1.354-0.933-2.22l1.231-4.896c0.243-0.969-0.26-1.97-1.183-2.352
					l-5.945-2.463c-0.923-0.382-1.986-0.03-2.499,0.827l-2.59,4.329c-0.458,0.767-1.362,1.124-2.229,0.911
					c-1.513-0.373-3.053-0.678-4.616-0.913c-0.884-0.133-1.586-0.81-1.716-1.695l-0.737-4.996c-0.146-0.988-0.994-1.72-1.993-1.72
					h-6.435c-0.999,0-1.847,0.732-1.993,1.72l-0.737,4.996c-0.13,0.885-0.832,1.562-1.716,1.695
					c-1.563,0.235-3.103,0.54-4.616,0.913c-0.867,0.214-1.771-0.144-2.229-0.911l-2.59-4.329c-0.513-0.857-1.576-1.209-2.499-0.827
					l-5.945,2.463c-0.923,0.382-1.426,1.383-1.183,2.352l1.231,4.896c0.218,0.866-0.169,1.758-0.933,2.22
					c-1.345,0.814-2.649,1.688-3.91,2.618c-0.719,0.531-1.693,0.547-2.411,0.014l-4.056-3.014c-0.802-0.596-1.919-0.514-2.625,0.192
					l-4.55,4.55c-0.706,0.706-0.788,1.824-0.193,2.626l3.014,4.056c0.533,0.718,0.517,1.692-0.014,2.411
					c-0.93,1.26-1.804,2.564-2.618,3.91c-0.462,0.764-1.354,1.15-2.22,0.933l-4.896-1.231c-0.969-0.244-1.97,0.26-2.352,1.182
					l-2.463,5.945c-0.382,0.923-0.03,1.986,0.827,2.499l4.329,2.59c0.766,0.458,1.124,1.362,0.911,2.229
					c-0.373,1.513-0.678,3.053-0.913,4.616c-0.133,0.884-0.81,1.586-1.695,1.716l-4.996,0.737c-0.988,0.146-1.72,0.994-1.72,1.993
					v6.435c0,0.999,0.732,1.847,1.72,1.993l4.996,0.737c0.885,0.13,1.562,0.832,1.695,1.716c0.235,1.563,0.54,3.103,0.913,4.616
					c0.214,0.867-0.144,1.771-0.911,2.23l-4.329,2.59c-0.857,0.513-1.209,1.576-0.827,2.499l2.463,5.945
					c0.382,0.923,1.383,1.426,2.352,1.183l4.896-1.231c0.866-0.218,1.758,0.169,2.22,0.933c0.814,1.345,1.688,2.649,2.618,3.91
					c0.531,0.719,0.547,1.693,0.014,2.411l-3.014,4.056c-0.596,0.802-0.514,1.919,0.193,2.626l4.55,4.55
					c0.706,0.706,1.824,0.788,2.625,0.193l4.056-3.014c0.718-0.533,1.692-0.517,2.411,0.014c1.26,0.931,2.564,1.805,3.91,2.618
					c0.764,0.462,1.15,1.354,0.933,2.22l-1.231,4.896c-0.244,0.969,0.26,1.97,1.183,2.352l5.945,2.463
					c0.923,0.382,1.986,0.03,2.499-0.827l2.59-4.329c0.458-0.766,1.362-1.124,2.229-0.911c1.514,0.373,3.053,0.678,4.616,0.913
					c0.884,0.133,1.586,0.81,1.716,1.695l0.737,4.996c0.146,0.988,0.994,1.72,1.993,1.72h6.435c0.999,0,1.847-0.732,1.993-1.72
					l0.737-4.996c0.131-0.885,0.832-1.562,1.716-1.695c1.563-0.235,3.103-0.54,4.616-0.913c0.867-0.214,1.771,0.144,2.229,0.911
					l2.589,4.329c0.513,0.857,1.576,1.209,2.499,0.827l5.945-2.463c0.923-0.382,1.426-1.383,1.183-2.352l-1.231-4.896
					c-0.218-0.866,0.169-1.758,0.933-2.22c1.345-0.814,2.649-1.688,3.91-2.618c0.719-0.531,1.693-0.547,2.411-0.014l4.056,3.014
					c0.802,0.596,1.919,0.514,2.626-0.193l4.55-4.55c0.706-0.706,0.788-1.824,0.193-2.626l-3.014-4.056
					c-0.533-0.718-0.517-1.691,0.014-2.411c0.93-1.26,1.804-2.565,2.618-3.91c0.462-0.764,1.354-1.15,2.22-0.933l4.896,1.231
					c0.969,0.243,1.97-0.26,2.352-1.183l2.463-5.945c0.382-0.923,0.03-1.986-0.827-2.499l-4.329-2.59
					c-0.766-0.458-1.124-1.362-0.911-2.229c0.373-1.514,0.678-3.053,0.913-4.616c0.133-0.884,0.81-1.586,1.695-1.716l4.996-0.737
					c0.988-0.146,1.72-0.994,1.72-1.993v-6.435C269.554,234.371,268.822,233.523,267.834,233.378z M210.575,196.433
					c6.779,0,12.274,5.495,12.274,12.274c0,6.779-5.495,12.274-12.274,12.274c-6.779,0-12.274-5.495-12.274-12.274
					C198.301,201.928,203.796,196.433,210.575,196.433z M178.364,241.027c-6.447-2.095-9.975-9.019-7.88-15.466
					c2.095-6.447,9.019-9.975,15.466-7.881c6.447,2.095,9.975,9.019,7.881,15.466C191.735,239.594,184.811,243.122,178.364,241.027z
					 M202.941,269.977c-3.984,5.484-11.66,6.7-17.145,2.715c-5.484-3.984-6.7-11.66-2.715-17.145
					c3.984-5.484,11.66-6.7,17.145-2.715C205.71,256.816,206.926,264.492,202.941,269.977z M210.575,244.219
					c-3.11,0-5.631-2.521-5.631-5.631c0-3.11,2.521-5.631,5.631-5.631c3.11,0,5.631,2.521,5.631,5.631
					C216.206,241.698,213.685,244.219,210.575,244.219z M235.353,272.692c-5.484,3.984-13.16,2.769-17.145-2.715
					s-2.769-13.16,2.715-17.145c5.484-3.984,13.16-2.769,17.145,2.715C242.053,261.032,240.837,268.707,235.353,272.692z
					 M242.786,241.027c-6.447,2.095-13.371-1.434-15.466-7.88c-2.095-6.447,1.433-13.372,7.88-15.466
					c6.447-2.095,13.372,1.434,15.466,7.881C252.761,232.008,249.233,238.933,242.786,241.027z"/>
				<path style="fill:none;stroke:#383838;stroke-width:5;stroke-linecap:square;stroke-linejoin:round;stroke-miterlimit:10;" d="
					M267.834,233.378l-4.996-0.737c-0.885-0.13-1.562-0.832-1.695-1.716c-0.235-1.563-0.54-3.103-0.913-4.616
					c-0.214-0.867,0.144-1.771,0.911-2.229l4.329-2.59c0.857-0.513,1.209-1.576,0.827-2.499l-2.463-5.945
					c-0.382-0.923-1.383-1.426-2.352-1.182l-4.896,1.231c-0.866,0.218-1.758-0.169-2.22-0.933c-0.814-1.345-1.688-2.649-2.618-3.91
					c-0.531-0.719-0.547-1.693-0.014-2.411l3.014-4.056c0.596-0.802,0.514-1.919-0.193-2.626l-4.55-4.55
					c-0.706-0.706-1.824-0.788-2.626-0.192l-4.056,3.014c-0.718,0.533-1.692,0.517-2.411-0.014c-1.26-0.93-2.564-1.805-3.91-2.618
					c-0.764-0.462-1.15-1.354-0.933-2.22l1.231-4.896c0.243-0.969-0.26-1.97-1.183-2.352l-5.945-2.463
					c-0.923-0.382-1.986-0.03-2.499,0.827l-2.59,4.329c-0.458,0.767-1.362,1.124-2.229,0.911c-1.513-0.373-3.053-0.678-4.616-0.913
					c-0.884-0.133-1.586-0.81-1.716-1.695l-0.737-4.996c-0.146-0.988-0.994-1.72-1.993-1.72h-6.435c-0.999,0-1.847,0.732-1.993,1.72
					l-0.737,4.996c-0.13,0.885-0.832,1.562-1.716,1.695c-1.563,0.235-3.103,0.54-4.616,0.913c-0.867,0.214-1.771-0.144-2.229-0.911
					l-2.59-4.329c-0.513-0.857-1.576-1.209-2.499-0.827l-5.945,2.463c-0.923,0.382-1.426,1.383-1.183,2.352l1.231,4.896
					c0.218,0.866-0.169,1.758-0.933,2.22c-1.345,0.814-2.649,1.688-3.91,2.618c-0.719,0.531-1.693,0.547-2.411,0.014l-4.056-3.014
					c-0.802-0.596-1.919-0.514-2.625,0.192l-4.55,4.55c-0.706,0.706-0.788,1.824-0.193,2.626l3.014,4.056
					c0.533,0.718,0.517,1.692-0.014,2.411c-0.93,1.26-1.804,2.564-2.618,3.91c-0.462,0.764-1.354,1.15-2.22,0.933l-4.896-1.231
					c-0.969-0.244-1.97,0.26-2.352,1.182l-2.463,5.945c-0.382,0.923-0.03,1.986,0.827,2.499l4.329,2.59
					c0.766,0.458,1.124,1.362,0.911,2.229c-0.373,1.513-0.678,3.053-0.913,4.616c-0.133,0.884-0.81,1.586-1.695,1.716l-4.996,0.737
					c-0.988,0.146-1.72,0.994-1.72,1.993v6.435c0,0.999,0.732,1.847,1.72,1.993l4.996,0.737c0.885,0.13,1.562,0.832,1.695,1.716
					c0.235,1.563,0.54,3.103,0.913,4.616c0.214,0.867-0.144,1.771-0.911,2.23l-4.329,2.59c-0.857,0.513-1.209,1.576-0.827,2.499
					l2.463,5.945c0.382,0.923,1.383,1.426,2.352,1.183l4.896-1.231c0.866-0.218,1.758,0.169,2.22,0.933
					c0.814,1.345,1.688,2.649,2.618,3.91c0.531,0.719,0.547,1.693,0.014,2.411l-3.014,4.056c-0.596,0.802-0.514,1.919,0.193,2.626
					l4.55,4.55c0.706,0.706,1.824,0.788,2.625,0.193l4.056-3.014c0.718-0.533,1.692-0.517,2.411,0.014
					c1.26,0.931,2.564,1.805,3.91,2.618c0.764,0.462,1.15,1.354,0.933,2.22l-1.231,4.896c-0.244,0.969,0.26,1.97,1.183,2.352
					l5.945,2.463c0.923,0.382,1.986,0.03,2.499-0.827l2.59-4.329c0.458-0.766,1.362-1.124,2.229-0.911
					c1.514,0.373,3.053,0.678,4.616,0.913c0.884,0.133,1.586,0.81,1.716,1.695l0.737,4.996c0.146,0.988,0.994,1.72,1.993,1.72h6.435
					c0.999,0,1.847-0.732,1.993-1.72l0.737-4.996c0.131-0.885,0.832-1.562,1.716-1.695c1.563-0.235,3.103-0.54,4.616-0.913
					c0.867-0.214,1.771,0.144,2.229,0.911l2.589,4.329c0.513,0.857,1.576,1.209,2.499,0.827l5.945-2.463
					c0.923-0.382,1.426-1.383,1.183-2.352l-1.231-4.896c-0.218-0.866,0.169-1.758,0.933-2.22c1.345-0.814,2.649-1.688,3.91-2.618
					c0.719-0.531,1.693-0.547,2.411-0.014l4.056,3.014c0.802,0.596,1.919,0.514,2.626-0.193l4.55-4.55
					c0.706-0.706,0.788-1.824,0.193-2.626l-3.014-4.056c-0.533-0.718-0.517-1.691,0.014-2.411c0.93-1.26,1.804-2.565,2.618-3.91
					c0.462-0.764,1.354-1.15,2.22-0.933l4.896,1.231c0.969,0.243,1.97-0.26,2.352-1.183l2.463-5.945
					c0.382-0.923,0.03-1.986-0.827-2.499l-4.329-2.59c-0.766-0.458-1.124-1.362-0.911-2.229c0.373-1.514,0.678-3.053,0.913-4.616
					c0.133-0.884,0.81-1.586,1.695-1.716l4.996-0.737c0.988-0.146,1.72-0.994,1.72-1.993v-6.435
					C269.554,234.371,268.822,233.523,267.834,233.378z"/>
				
					<circle style="fill:none;stroke:#383838;stroke-width:2;stroke-linecap:square;stroke-linejoin:round;stroke-miterlimit:10;" cx="210.575" cy="208.707" r="12.274"/>
				<path style="fill:none;stroke:#383838;stroke-width:2;stroke-linecap:square;stroke-linejoin:round;stroke-miterlimit:10;" d="
					M178.364,241.027c-6.447-2.095-9.975-9.019-7.88-15.466c2.095-6.447,9.019-9.975,15.466-7.881
					c6.447,2.095,9.975,9.019,7.881,15.466C191.735,239.594,184.811,243.122,178.364,241.027z"/>
				<path style="fill:none;stroke:#383838;stroke-width:2;stroke-linecap:square;stroke-linejoin:round;stroke-miterlimit:10;" d="
					M202.941,269.977c-3.984,5.484-11.66,6.7-17.145,2.715c-5.484-3.984-6.7-11.66-2.715-17.145c3.984-5.484,11.66-6.7,17.145-2.715
					C205.71,256.816,206.926,264.492,202.941,269.977z"/>
				
					<circle style="fill:none;stroke:#383838;stroke-width:2;stroke-linecap:square;stroke-linejoin:round;stroke-miterlimit:10;" cx="210.575" cy="238.588" r="5.631"/>
				<path style="fill:none;stroke:#383838;stroke-width:2;stroke-linecap:square;stroke-linejoin:round;stroke-miterlimit:10;" d="
					M235.353,272.692c-5.484,3.984-13.16,2.769-17.145-2.715s-2.769-13.16,2.715-17.145c5.484-3.984,13.16-2.769,17.145,2.715
					C242.053,261.032,240.837,268.707,235.353,272.692z"/>
				<path style="fill:none;stroke:#383838;stroke-width:2;stroke-linecap:square;stroke-linejoin:round;stroke-miterlimit:10;" d="
					M242.786,241.027c-6.447,2.095-13.371-1.434-15.466-7.88c-2.095-6.447,1.433-13.372,7.88-15.466
					c6.447-2.095,13.372,1.434,15.466,7.881C252.761,232.008,249.233,238.933,242.786,241.027z"/>
			</g>
			<g>
				<path style="fill:#F2CD13;" d="M314.138,189.976l-5.327-1.656c-0.038-2.284-0.436-4.512-1.158-6.613l4.444-3.368
					c0.904-0.685,1.131-1.949,0.523-2.906l-2.609-4.104c-0.609-0.957-1.85-1.288-2.854-0.76l-4.936,2.595
					c-1.597-1.545-3.445-2.851-5.497-3.854l0.761-5.527c0.155-1.124-0.578-2.178-1.685-2.425l-4.747-1.057
					c-1.107-0.247-2.218,0.397-2.555,1.48l-1.656,5.327c-2.284,0.038-4.512,0.436-6.613,1.158l-3.368-4.444
					c-0.685-0.904-1.949-1.131-2.906-0.523l-4.104,2.609c-0.957,0.609-1.288,1.85-0.76,2.853l2.595,4.936
					c-1.545,1.597-2.851,3.445-3.854,5.497l-5.527-0.761c-1.124-0.155-2.178,0.578-2.425,1.685l-1.057,4.747
					c-0.247,1.107,0.397,2.218,1.48,2.555l5.327,1.656c0.038,2.284,0.436,4.512,1.158,6.613l-4.444,3.368
					c-0.904,0.685-1.131,1.949-0.523,2.906l2.609,4.104c0.608,0.957,1.849,1.288,2.853,0.76l4.936-2.595
					c1.597,1.545,3.445,2.851,5.497,3.854l-0.761,5.527c-0.155,1.124,0.578,2.178,1.685,2.425l4.747,1.057
					c1.107,0.246,2.218-0.397,2.555-1.48l1.656-5.327c2.284-0.038,4.512-0.436,6.613-1.158l3.368,4.444
					c0.685,0.904,1.949,1.131,2.906,0.523l4.104-2.609c0.957-0.608,1.288-1.849,0.76-2.854l-2.595-4.936
					c1.545-1.597,2.851-3.445,3.854-5.497l5.527,0.761c1.124,0.155,2.178-0.578,2.425-1.685l1.057-4.746
					C315.865,191.424,315.221,190.313,314.138,189.976z M285.357,197.071c-4.624-1.03-7.538-5.613-6.508-10.236
					c1.03-4.624,5.613-7.538,10.237-6.508c4.624,1.03,7.538,5.613,6.508,10.237C294.564,195.187,289.981,198.101,285.357,197.071z"
					/>
				<path style="fill:none;stroke:#383838;stroke-width:5;stroke-linecap:square;stroke-linejoin:round;stroke-miterlimit:10;" d="
					M314.138,189.976l-5.327-1.656c-0.038-2.284-0.436-4.512-1.158-6.613l4.444-3.368c0.904-0.685,1.131-1.949,0.523-2.906
					l-2.609-4.104c-0.609-0.957-1.85-1.288-2.854-0.76l-4.936,2.595c-1.597-1.545-3.445-2.851-5.497-3.854l0.761-5.527
					c0.155-1.124-0.578-2.178-1.685-2.425l-4.747-1.057c-1.107-0.247-2.218,0.397-2.555,1.48l-1.656,5.327
					c-2.284,0.038-4.512,0.436-6.613,1.158l-3.368-4.444c-0.685-0.904-1.949-1.131-2.906-0.523l-4.104,2.609
					c-0.957,0.609-1.288,1.85-0.76,2.853l2.595,4.936c-1.545,1.597-2.851,3.445-3.854,5.497l-5.527-0.761
					c-1.124-0.155-2.178,0.578-2.425,1.685l-1.057,4.747c-0.247,1.107,0.397,2.218,1.48,2.555l5.327,1.656
					c0.038,2.284,0.436,4.512,1.158,6.613l-4.444,3.368c-0.904,0.685-1.131,1.949-0.523,2.906l2.609,4.104
					c0.608,0.957,1.849,1.288,2.853,0.76l4.936-2.595c1.597,1.545,3.445,2.851,5.497,3.854l-0.761,5.527
					c-0.155,1.124,0.578,2.178,1.685,2.425l4.747,1.057c1.107,0.246,2.218-0.397,2.555-1.48l1.656-5.327
					c2.284-0.038,4.512-0.436,6.613-1.158l3.368,4.444c0.685,0.904,1.949,1.131,2.906,0.523l4.104-2.609
					c0.957-0.608,1.288-1.849,0.76-2.854l-2.595-4.936c1.545-1.597,2.851-3.445,3.854-5.497l5.527,0.761
					c1.124,0.155,2.178-0.578,2.425-1.685l1.057-4.746C315.865,191.424,315.221,190.313,314.138,189.976z"/>
				<path style="fill:none;stroke:#383838;stroke-width:2;stroke-linecap:square;stroke-linejoin:round;stroke-miterlimit:10;" d="
					M285.357,197.071c-4.624-1.03-7.538-5.613-6.508-10.236c1.03-4.624,5.613-7.538,10.237-6.508
					c4.624,1.03,7.538,5.613,6.508,10.237C294.564,195.187,289.981,198.101,285.357,197.071z"/>
			</g>
			<g>
				<path style="fill:#F2CD13;" d="M346.197,242.736l-6.291-0.92c-0.448-2.564-1.29-5.001-2.475-7.239l4.406-4.579
					c0.896-0.931,0.928-2.395,0.074-3.364l-3.664-4.158c-0.855-0.97-2.31-1.122-3.347-0.35l-5.097,3.796
					c-2.071-1.456-4.384-2.599-6.871-3.365l-0.122-6.356c-0.025-1.292-1.037-2.35-2.327-2.431l-5.531-0.349
					c-1.29-0.081-2.427,0.84-2.614,2.119l-0.92,6.291c-2.564,0.447-5.001,1.29-7.239,2.475l-4.579-4.406
					c-0.931-0.896-2.395-0.928-3.364-0.074l-4.158,3.664c-0.97,0.855-1.122,2.31-0.35,3.347l3.796,5.097
					c-1.456,2.071-2.599,4.383-3.365,6.871l-6.356,0.122c-1.292,0.025-2.35,1.037-2.431,2.327l-0.349,5.531
					c-0.081,1.29,0.84,2.427,2.119,2.614l6.29,0.92c0.447,2.564,1.29,5.001,2.475,7.239l-4.406,4.579
					c-0.896,0.931-0.928,2.395-0.074,3.364l3.664,4.158c0.855,0.97,2.31,1.122,3.347,0.35l5.097-3.796
					c2.071,1.456,4.383,2.599,6.871,3.365l0.122,6.356c0.025,1.292,1.037,2.349,2.327,2.431l5.531,0.349
					c1.29,0.081,2.427-0.84,2.614-2.119l0.92-6.291c2.564-0.448,5.002-1.29,7.239-2.475l4.579,4.406
					c0.931,0.896,2.395,0.928,3.364,0.074l4.158-3.664c0.97-0.855,1.122-2.31,0.35-3.347l-3.796-5.097
					c1.456-2.071,2.599-4.383,3.365-6.871l6.356-0.122c1.292-0.025,2.35-1.037,2.431-2.327l0.349-5.531
					C348.398,244.06,347.476,242.923,346.197,242.736z M315.055,255.821c-5.388-0.34-9.479-4.983-9.139-10.371
					c0.34-5.388,4.983-9.479,10.371-9.139c5.388,0.34,9.479,4.983,9.139,10.371S320.443,256.161,315.055,255.821z"/>
				<path style="fill:none;stroke:#383838;stroke-width:5;stroke-linecap:square;stroke-linejoin:round;stroke-miterlimit:10;" d="
					M346.197,242.736l-6.291-0.92c-0.448-2.564-1.29-5.001-2.475-7.239l4.406-4.579c0.896-0.931,0.928-2.395,0.074-3.364
					l-3.664-4.158c-0.855-0.97-2.31-1.122-3.347-0.35l-5.097,3.796c-2.071-1.456-4.384-2.599-6.871-3.365l-0.122-6.356
					c-0.025-1.292-1.037-2.35-2.327-2.431l-5.531-0.349c-1.29-0.081-2.427,0.84-2.614,2.119l-0.92,6.291
					c-2.564,0.447-5.001,1.29-7.239,2.475l-4.579-4.406c-0.931-0.896-2.395-0.928-3.364-0.074l-4.158,3.664
					c-0.97,0.855-1.122,2.31-0.35,3.347l3.796,5.097c-1.456,2.071-2.599,4.383-3.365,6.871l-6.356,0.122
					c-1.292,0.025-2.35,1.037-2.431,2.327l-0.349,5.531c-0.081,1.29,0.84,2.427,2.119,2.614l6.29,0.92
					c0.447,2.564,1.29,5.001,2.475,7.239l-4.406,4.579c-0.896,0.931-0.928,2.395-0.074,3.364l3.664,4.158
					c0.855,0.97,2.31,1.122,3.347,0.35l5.097-3.796c2.071,1.456,4.383,2.599,6.871,3.365l0.122,6.356
					c0.025,1.292,1.037,2.349,2.327,2.431l5.531,0.349c1.29,0.081,2.427-0.84,2.614-2.119l0.92-6.291
					c2.564-0.448,5.002-1.29,7.239-2.475l4.579,4.406c0.931,0.896,2.395,0.928,3.364,0.074l4.158-3.664
					c0.97-0.855,1.122-2.31,0.35-3.347l-3.796-5.097c1.456-2.071,2.599-4.383,3.365-6.871l6.356-0.122
					c1.292-0.025,2.35-1.037,2.431-2.327l0.349-5.531C348.398,244.06,347.476,242.923,346.197,242.736z"/>
				
					<ellipse transform="matrix(0.7203 -0.6936 0.6936 0.7203 -82.3954 287.7798)" style="fill:none;stroke:#383838;stroke-width:2;stroke-linecap:square;stroke-linejoin:round;stroke-miterlimit:10;" cx="315.671" cy="246.066" rx="9.774" ry="9.775"/>
			</g>
			<g>
				<path style="fill:#F2CD13;" d="M286.81,312.913l-6.84-1.001c-0.487-2.788-1.403-5.438-2.691-7.871l4.791-4.979
					c0.974-1.013,1.009-2.604,0.08-3.658l-3.984-4.521c-0.929-1.054-2.512-1.22-3.639-0.38l-5.542,4.127
					c-2.252-1.583-4.766-2.826-7.471-3.659l-0.133-6.911c-0.027-1.405-1.127-2.555-2.53-2.643l-6.013-0.379
					c-1.403-0.089-2.639,0.914-2.842,2.304l-1.001,6.84c-2.788,0.487-5.438,1.403-7.871,2.691l-4.979-4.791
					c-1.013-0.975-2.604-1.009-3.658-0.08l-4.52,3.984c-1.054,0.929-1.22,2.512-0.38,3.639l4.127,5.542
					c-1.583,2.252-2.826,4.766-3.659,7.471l-6.911,0.133c-1.405,0.027-2.555,1.127-2.643,2.53l-0.38,6.013
					c-0.089,1.403,0.914,2.639,2.304,2.842l6.84,1.001c0.487,2.788,1.403,5.438,2.691,7.871l-4.791,4.979
					c-0.975,1.013-1.009,2.604-0.08,3.658l3.984,4.521c0.929,1.054,2.512,1.22,3.639,0.38l5.542-4.127
					c2.252,1.583,4.766,2.826,7.471,3.659l0.133,6.911c0.027,1.405,1.127,2.555,2.53,2.643l6.013,0.38
					c1.403,0.089,2.639-0.914,2.842-2.304l1.001-6.84c2.788-0.487,5.438-1.403,7.871-2.691l4.979,4.791
					c1.013,0.975,2.603,1.009,3.658,0.08l4.52-3.984c1.054-0.929,1.22-2.512,0.38-3.639l-4.127-5.542
					c1.583-2.252,2.826-4.766,3.659-7.471l6.911-0.133c1.405-0.027,2.555-1.127,2.643-2.53l0.379-6.014
					C289.203,314.352,288.201,313.116,286.81,312.913z M252.949,327.14c-5.858-0.37-10.307-5.418-9.937-11.276
					c0.37-5.858,5.418-10.307,11.276-9.937c5.858,0.37,10.307,5.418,9.937,11.276C263.856,323.061,258.807,327.51,252.949,327.14z"
					/>
				<path style="fill:none;stroke:#383838;stroke-width:5;stroke-linecap:square;stroke-linejoin:round;stroke-miterlimit:10;" d="
					M286.81,312.913l-6.84-1.001c-0.487-2.788-1.403-5.438-2.691-7.871l4.791-4.979c0.974-1.013,1.009-2.604,0.08-3.658
					l-3.984-4.521c-0.929-1.054-2.512-1.22-3.639-0.38l-5.542,4.127c-2.252-1.583-4.766-2.826-7.471-3.659l-0.133-6.911
					c-0.027-1.405-1.127-2.555-2.53-2.643l-6.013-0.379c-1.403-0.089-2.639,0.914-2.842,2.304l-1.001,6.84
					c-2.788,0.487-5.438,1.403-7.871,2.691l-4.979-4.791c-1.013-0.975-2.604-1.009-3.658-0.08l-4.52,3.984
					c-1.054,0.929-1.22,2.512-0.38,3.639l4.127,5.542c-1.583,2.252-2.826,4.766-3.659,7.471l-6.911,0.133
					c-1.405,0.027-2.555,1.127-2.643,2.53l-0.38,6.013c-0.089,1.403,0.914,2.639,2.304,2.842l6.84,1.001
					c0.487,2.788,1.403,5.438,2.691,7.871l-4.791,4.979c-0.975,1.013-1.009,2.604-0.08,3.658l3.984,4.521
					c0.929,1.054,2.512,1.22,3.639,0.38l5.542-4.127c2.252,1.583,4.766,2.826,7.471,3.659l0.133,6.911
					c0.027,1.405,1.127,2.555,2.53,2.643l6.013,0.38c1.403,0.089,2.639-0.914,2.842-2.304l1.001-6.84
					c2.788-0.487,5.438-1.403,7.871-2.691l4.979,4.791c1.013,0.975,2.603,1.009,3.658,0.08l4.52-3.984
					c1.054-0.929,1.22-2.512,0.38-3.639l-4.127-5.542c1.583-2.252,2.826-4.766,3.659-7.471l6.911-0.133
					c1.405-0.027,2.555-1.127,2.643-2.53l0.379-6.014C289.203,314.352,288.201,313.116,286.81,312.913z"/>
				<path style="fill:none;stroke:#383838;stroke-width:2;stroke-linecap:square;stroke-linejoin:round;stroke-miterlimit:10;" d="
					M252.949,327.14c-5.858-0.37-10.307-5.418-9.937-11.276c0.37-5.858,5.418-10.307,11.276-9.937
					c5.858,0.37,10.307,5.418,9.937,11.276C263.856,323.061,258.807,327.51,252.949,327.14z"/>
			</g>
			<g>
				<path style="fill:#FFFFFF;" d="M249.959,312.256c49.408,0,93.152,12.457,115.116,20.002l14.973-46.736
					c0,0-59.217-25.63-130.089-25.63s-130.089,25.63-130.089,25.63l14.973,46.736C156.807,324.713,200.551,312.256,249.959,312.256z
					"/>
				<g>
					<path style="fill:#383838;" d="M249.959,264.891c58.357,0,109.293,17.891,123.908,23.536l-12.008,37.479
						c-23.32-7.629-65.115-18.651-111.9-18.651c-46.786,0-88.58,11.021-111.9,18.651l-12.007-37.479
						C140.667,282.782,191.601,264.891,249.959,264.891 M249.959,259.891c-70.872,0-130.089,25.63-130.089,25.63l14.973,46.736
						c21.964-7.545,65.708-20.002,115.116-20.002c49.408,0,93.152,12.457,115.116,20.002l14.973-46.736
						C380.048,285.522,320.831,259.891,249.959,259.891L249.959,259.891z"/>
				</g>
			</g>
			<g>
				<path style="fill:#FFFFFF;" d="M362.301,343.915c-22.741-7.594-64.931-19.063-112.343-19.063
					c-47.411,0-89.602,11.469-112.342,19.063l15.263,47.64c23.983-6.873,58.829-14.338,97.08-14.338s73.097,7.465,97.08,14.338
					L362.301,343.915z"/>
				<g>
					<g>
						<path style="fill:#383838;" d="M249.959,329.852c44.075,0,83.807,10.199,106.063,17.276l-12.275,38.315
							c-23.14-6.317-56.889-13.226-93.788-13.226c-36.899,0-70.647,6.909-93.788,13.226l-12.275-38.315
							C166.152,340.051,205.884,329.852,249.959,329.852 M249.959,324.852c-47.411,0-89.602,11.469-112.342,19.063l15.263,47.64
							c23.983-6.873,58.829-14.338,97.08-14.338c38.25,0,73.097,7.465,97.08,14.338l15.263-47.64
							C339.561,336.321,297.37,324.852,249.959,324.852L249.959,324.852z"/>
					</g>
				</g>
			</g>
		</g>
	</g>
</g>
<g id="TEXTS">
	<g>
		<path id="SVGID_x5F_1_x5F_" style="fill:none;" d="M134.843,321.693c21.964-7.545,65.708-20.002,115.116-20.002
			c49.408,0,93.152,12.457,115.116,20.002"/>
		<text>		<textPath  xlink:href="#SVGID_x5F_1_x5F_" startOffset="0.049%">
<tspan  style="fill:#383838; font-family:'Anton-Regular'; font-size:36px; letter-spacing:50;">MECHANICAL</tspan>		</textPath>
</text>
	</g>
	<g>
		<path id="SVGID_x5F_00000042700063679810474010000003858695675725869200_x5F_" style="fill:none;" d="M134.843,386.649
			c21.964-7.545,65.708-20.002,115.116-20.002c49.408,0,93.152,12.457,115.116,20.002"/>
		<text>		<textPath  xlink:href="#SVGID_x5F_00000042700063679810474010000003858695675725869200_x5F_" startOffset="0.049%">
<tspan  style="fill:#383838; font-family:'Anton-Regular'; font-size:36px; letter-spacing:50;">ENGINEER</tspan>		</textPath>
</text>
	</g>
</g>
</svg>
